<svg width="20" height="24" viewBox="0 0 20 24" fill="none" xmlns="http://www.w3.org/2000/svg">
<path d="M6.78571 1.125C6.78571 0.501562 6.30804 0 5.71429 0C5.12054 0 4.64286 0.501562 4.64286 1.125V3H2.85714C1.28125 3 0 4.34531 0 6V6.75V9V21C0 22.6547 1.28125 24 2.85714 24H17.1429C18.7188 24 20 22.6547 20 21V9V6.75V6C20 4.34531 18.7188 3 17.1429 3H15.3571V1.125C15.3571 0.501562 14.8795 0 14.2857 0C13.692 0 13.2143 0.501562 13.2143 1.125V3H6.78571V1.125ZM2.14286 9H17.8571V21C17.8571 21.4125 17.5357 21.75 17.1429 21.75H2.85714C2.46429 21.75 2.14286 21.4125 2.14286 21V9Z" fill="#FEFEFE" fill-opacity="0.6"/>
</svg>
