<svg width="36" height="28" viewBox="0 0 36 28" fill="none" xmlns="http://www.w3.org/2000/svg">
<path d="M0.5 3.5C0.5 1.56953 2.74219 0 5.5 0H30.5C33.2578 0 35.5 1.56953 35.5 3.5V24.5C35.5 26.4305 33.2578 28 30.5 28H5.5C2.74219 28 0.5 26.4305 0.5 24.5V3.5ZM14.7969 15.2469C12.6172 14.525 11.0156 13.0922 10.6016 11.375H13.6562C13.7812 13.0375 14.2578 14.3172 14.7969 15.2469ZM18.0234 15.75H18H17.9766C17.7891 15.5586 17.5312 15.2633 17.2656 14.8477C16.7969 14.1039 16.2969 12.9719 16.1562 11.375H19.8359C19.6953 12.9719 19.2031 14.1039 18.7266 14.8477C18.4609 15.2633 18.2031 15.5586 18.0156 15.75H18.0234ZM21.2031 15.2469C21.7344 14.3117 22.2109 13.0375 22.3438 11.375H25.3984C24.9844 13.0922 23.3828 14.525 21.2031 15.2469ZM22.3438 9.625C22.2188 7.9625 21.7422 6.68281 21.2031 5.75312C23.3828 6.475 24.9844 7.90781 25.3984 9.625H22.3438ZM17.9766 5.25H18H18.0234C18.2109 5.44141 18.4688 5.73672 18.7344 6.15234C19.2031 6.89609 19.7031 8.02812 19.8438 9.625H16.1641C16.3047 8.02812 16.7969 6.89609 17.2734 6.15234C17.5391 5.73672 17.7969 5.44141 17.9844 5.25H17.9766ZM14.7969 5.75312C14.2656 6.68828 13.7891 7.9625 13.6562 9.625H10.6016C11.0156 7.90781 12.6172 6.475 14.7969 5.75312ZM28 10.5C28 8.64348 26.9464 6.86301 25.0711 5.55025C23.1957 4.2375 20.6522 3.5 18 3.5C15.3478 3.5 12.8043 4.2375 10.9289 5.55025C9.05357 6.86301 8 8.64348 8 10.5C8 12.3565 9.05357 14.137 10.9289 15.4497C12.8043 16.7625 15.3478 17.5 18 17.5C20.6522 17.5 23.1957 16.7625 25.0711 15.4497C26.9464 14.137 28 12.3565 28 10.5ZM9.25 21C8.5625 21 8 21.3937 8 21.875C8 22.3563 8.5625 22.75 9.25 22.75H26.75C27.4375 22.75 28 22.3563 28 21.875C28 21.3937 27.4375 21 26.75 21H9.25Z" fill="white" fill-opacity="0.8"/>
</svg>
