<svg width="29" height="30" viewBox="0 0 29 30" fill="none" xmlns="http://www.w3.org/2000/svg">
<path d="M29 15.054C29 7.01519 22.509 0.5 14.5 0.5C6.49102 0.5 0 7.01519 0 15.054C0 21.8762 4.68418 27.6068 10.9996 29.1816V19.4998H8.00898V15.054H10.9996V13.1381C10.9996 8.18634 13.2313 5.88953 18.0797 5.88953C18.9973 5.88953 20.5832 6.07146 21.2346 6.25338V10.2785C20.8947 10.2444 20.3 10.2216 19.558 10.2216C17.1791 10.2216 16.2615 11.1256 16.2615 13.4735V15.054H20.9967L20.1811 19.4998H16.2559V29.5C23.4379 28.6302 29 22.4959 29 15.054Z" fill="white" fill-opacity="0.6"/>
</svg>
