<svg width="36" height="28" viewBox="0 0 36 28" fill="none" xmlns="http://www.w3.org/2000/svg">
<path d="M0.5 4H35.5C35.5 1.79375 33.7561 0 31.6111 0H4.38889C2.24392 0 0.5 1.79375 0.5 4ZM0.5 6V24C0.5 26.2063 2.24392 28 4.38889 28H31.6111C33.7561 28 35.5 26.2063 35.5 24V6H0.5ZM4.38889 23.3312C4.38889 21.4875 5.84115 20 7.6276 20H14.7613C16.5538 20 18 21.4937 18 23.3312C18 23.7 17.7083 24 17.3498 24H5.03906C4.68056 24 4.38889 23.7 4.38889 23.3312ZM11.1944 10C12.2258 10 13.215 10.4214 13.9443 11.1716C14.6736 11.9217 15.0833 12.9391 15.0833 14C15.0833 15.0609 14.6736 16.0783 13.9443 16.8284C13.215 17.5786 12.2258 18 11.1944 18C10.163 18 9.17389 17.5786 8.44458 16.8284C7.71528 16.0783 7.30556 15.0609 7.30556 14C7.30556 12.9391 7.71528 11.9217 8.44458 11.1716C9.17389 10.4214 10.163 10 11.1944 10ZM21.8889 11C21.8889 10.45 22.3264 10 22.8611 10H30.6389C31.1736 10 31.6111 10.45 31.6111 11C31.6111 11.55 31.1736 12 30.6389 12H22.8611C22.3264 12 21.8889 11.55 21.8889 11ZM21.8889 15C21.8889 14.45 22.3264 14 22.8611 14H30.6389C31.1736 14 31.6111 14.45 31.6111 15C31.6111 15.55 31.1736 16 30.6389 16H22.8611C22.3264 16 21.8889 15.55 21.8889 15ZM21.8889 19C21.8889 18.45 22.3264 18 22.8611 18H30.6389C31.1736 18 31.6111 18.45 31.6111 19C31.6111 19.55 31.1736 20 30.6389 20H22.8611C22.3264 20 21.8889 19.55 21.8889 19Z" fill="white" fill-opacity="0.8"/>
</svg>
