<svg width="16" height="15" viewBox="0 0 16 15" fill="none" xmlns="http://www.w3.org/2000/svg">
<g clip-path="url(#clip0_2035_147)">
<path d="M8.00004 2.6875C6.18893 2.6875 4.70004 3.49688 3.55837 4.53867C2.48893 5.51758 1.75004 6.67969 1.37226 7.5C1.75004 8.32031 2.48893 9.48242 3.55559 10.4613C4.70004 11.5031 6.18893 12.3125 8.00004 12.3125C9.81115 12.3125 11.3 11.5031 12.4417 10.4613C13.5111 9.48242 14.25 8.32031 14.6278 7.5C14.25 6.67969 13.5111 5.51758 12.4445 4.53867C11.3 3.49688 9.81115 2.6875 8.00004 2.6875ZM2.65004 3.57891C3.95837 2.38125 5.75559 1.375 8.00004 1.375C10.2445 1.375 12.0417 2.38125 13.35 3.57891C14.65 4.76836 15.5195 6.1875 15.9334 7.16367C16.025 7.37969 16.025 7.62031 15.9334 7.83633C15.5195 8.8125 14.65 10.2344 13.35 11.4211C12.0417 12.6187 10.2445 13.625 8.00004 13.625C5.75559 13.625 3.95837 12.6187 2.65004 11.4211C1.35004 10.2344 0.480594 8.8125 0.0694824 7.83633C-0.0221842 7.62031 -0.0221842 7.37969 0.0694824 7.16367C0.480594 6.1875 1.35004 4.76562 2.65004 3.57891ZM8.00004 9.6875C9.22782 9.6875 10.2223 8.70859 10.2223 7.5C10.2223 6.29141 9.22782 5.3125 8.00004 5.3125C7.98059 5.3125 7.96393 5.3125 7.94448 5.3125C7.98059 5.45195 8.00004 5.59961 8.00004 5.75C8.00004 6.71523 7.20282 7.5 6.22226 7.5C6.06948 7.5 5.91948 7.48086 5.77782 7.44531C5.77782 7.46445 5.77782 7.48086 5.77782 7.5C5.77782 8.70859 6.77226 9.6875 8.00004 9.6875ZM8.00004 4C8.94303 4 9.8474 4.36875 10.5142 5.02513C11.181 5.6815 11.5556 6.57174 11.5556 7.5C11.5556 8.42826 11.181 9.3185 10.5142 9.97487C9.8474 10.6313 8.94303 11 8.00004 11C7.05705 11 6.15268 10.6313 5.48588 9.97487C4.81908 9.3185 4.44448 8.42826 4.44448 7.5C4.44448 6.57174 4.81908 5.6815 5.48588 5.02513C6.15268 4.36875 7.05705 4 8.00004 4Z" fill="#FEFEFE"/>
</g>
<defs>
<clipPath id="clip0_2035_147">
<rect width="16" height="14" fill="white" transform="translate(0 0.5)"/>
</clipPath>
</defs>
</svg>
