<svg width="29" height="30" viewBox="0 0 29 30" fill="none" xmlns="http://www.w3.org/2000/svg">
<path d="M14.5 0.5C6.48992 0.5 0 6.98992 0 15C0 23.0101 6.48992 29.5 14.5 29.5C22.5101 29.5 29 23.0101 29 15C29 6.98992 22.5101 0.5 14.5 0.5ZM21.2238 10.3635C21.0075 12.6554 20.0603 18.2216 19.5808 20.7883C19.3762 21.8758 18.9786 22.2383 18.5927 22.2734C17.7508 22.3494 17.1135 21.7179 16.295 21.18C15.0204 20.344 14.2954 19.8236 13.0617 19.005C11.6292 18.0637 12.5589 17.5433 13.3716 16.6956C13.5879 16.4734 17.2948 13.0998 17.3649 12.7958C17.3766 12.7548 17.3825 12.6145 17.2948 12.5385C17.2071 12.4625 17.0843 12.4917 16.9966 12.5093C16.8679 12.5366 14.8294 13.8833 10.8808 16.5494C10.304 16.947 9.7797 17.1399 9.30806 17.1282C8.7877 17.1165 7.79375 16.8359 7.05121 16.5962C6.14496 16.3038 5.41996 16.146 5.48427 15.6431C5.51546 15.382 5.87601 15.115 6.56593 14.8421C10.7912 13.0024 13.6093 11.7882 15.0204 11.1996C19.0488 9.52742 19.8849 9.23508 20.4286 9.22339C20.5514 9.22339 20.8145 9.25262 20.9899 9.39294C21.1044 9.49359 21.1773 9.63322 21.1946 9.78468C21.2262 9.97589 21.236 10.1701 21.2238 10.3635Z" fill="white" fill-opacity="0.6"/>
</svg>
