<svg width="379" height="53" viewBox="0 0 379 53" fill="none" xmlns="http://www.w3.org/2000/svg">
<path d="M340.16 51.7718L340.179 51.7938L340.201 51.8133C340.753 52.3037 341.552 52.4996 342.493 52.4996H374.973C375.908 52.4996 376.703 52.3068 377.217 51.7932C377.768 51.2419 377.993 50.4342 377.993 49.4796V41.2896C377.993 40.3536 377.776 39.5578 377.217 39.0456C376.705 38.4865 375.909 38.2696 374.973 38.2696H356.153V33.2496H369.303C370.238 33.2496 371.033 33.0568 371.547 32.5432C372.098 31.9919 372.323 31.1842 372.323 30.2296V22.7396C372.323 21.8036 372.106 21.0078 371.547 20.4956C371.035 19.9365 370.239 19.7196 369.303 19.7196H356.153V15.3296H374.973C375.908 15.3296 376.703 15.1368 377.217 14.6232C377.768 14.0719 377.993 13.2642 377.993 12.3096V4.11961C377.993 3.18358 377.776 2.38783 377.217 1.8756C376.705 1.31645 375.909 1.09961 374.973 1.09961H342.493C341.539 1.09961 340.731 1.32476 340.18 1.87606L340.18 1.87606C339.666 2.38971 339.473 3.18522 339.473 4.11961V49.4796C339.473 50.4214 339.669 51.2201 340.16 51.7718Z" stroke="white"/>
<path d="M291.488 51.7718L291.507 51.7938L291.529 51.8133C292.081 52.3037 292.88 52.4996 293.821 52.4996H329.451C330.386 52.4996 331.181 52.3068 331.695 51.7932C332.246 51.2419 332.471 50.4342 332.471 49.4796V27.4296C332.471 26.4936 332.255 25.6978 331.695 25.1856C331.183 24.6265 330.387 24.4096 329.451 24.4096H319.301C318.347 24.4096 317.539 24.6348 316.988 25.1861C316.474 25.6997 316.281 26.4952 316.281 27.4296V38.2696H307.691V4.11961C307.691 3.18359 307.475 2.38784 306.915 1.8756C306.403 1.31646 305.607 1.09961 304.671 1.09961H293.821C292.867 1.09961 292.059 1.32476 291.508 1.87606L291.508 1.87606C290.994 2.38971 290.801 3.18522 290.801 4.11961V49.4796C290.801 50.4214 290.997 51.2201 291.488 51.7718Z" stroke="white"/>
<path d="M239.324 51.7938L239.305 51.7718C238.815 51.2201 238.619 50.4214 238.619 49.4796V30.9996C238.619 29.5516 238.836 27.9026 239.261 26.0572L239.264 26.0454L239.264 26.0454C239.737 24.2011 240.444 22.0586 241.382 19.6201L247.469 3.73677C247.776 2.87037 248.253 2.18945 248.921 1.74358L248.929 1.73854L248.937 1.73378C249.643 1.29909 250.511 1.09961 251.509 1.09961H270.339C271.29 1.09961 272.115 1.29906 272.778 1.73856C273.494 2.18133 273.998 2.86218 274.308 3.73679L280.395 19.6201L239.324 51.7938ZM239.324 51.7938L239.346 51.8133M239.324 51.7938L239.346 51.8133M239.346 51.8133C239.898 52.3037 240.697 52.4996 241.639 52.4996H251.929C252.863 52.4996 253.659 52.3068 254.172 51.7932C254.724 51.2419 254.949 50.4342 254.949 49.4796V40.1796H266.339V49.4796C266.339 50.4342 266.564 51.2419 267.115 51.7932L267.135 51.8127M239.346 51.8133L267.135 51.8127M267.135 51.8127L267.156 51.83M267.135 51.8127L267.156 51.83M267.156 51.83C267.749 52.3044 268.582 52.4996 269.569 52.4996H280.139C281.073 52.4996 281.869 52.3068 282.382 51.7932C282.934 51.2419 283.159 50.4342 283.159 49.4796V30.9996C283.159 29.5478 282.917 27.8966 282.444 26.0512M267.156 51.83L282.444 26.0512M282.444 26.0512C282.018 24.203 281.333 22.0585 280.396 19.6207L282.444 26.0512ZM261.865 15.7432L261.885 15.7627L261.906 15.78C262.049 15.8943 262.214 16.1098 262.38 16.4764L265.461 26.4396H255.827L258.907 16.4762C259.071 16.1128 259.217 15.8872 259.333 15.7627C259.477 15.6544 259.618 15.6096 259.769 15.6096H261.519C261.675 15.6096 261.778 15.6564 261.865 15.7432Z" stroke="white"/>
<path d="M196.852 51.7718L196.872 51.7938L196.894 51.8133C197.445 52.3037 198.244 52.4996 199.186 52.4996H229.006C229.94 52.4996 230.736 52.3068 231.249 51.7932C231.801 51.2419 232.026 50.4342 232.026 49.4796V41.1496C232.026 40.2136 231.809 39.4178 231.25 38.9056C230.738 38.3465 229.942 38.1296 229.006 38.1296H222.716V15.6096H229.006C229.94 15.6096 230.736 15.4168 231.249 14.9032C231.801 14.3519 232.026 13.5442 232.026 12.5896V4.11961C232.026 3.18357 231.809 2.38782 231.25 1.87559C230.738 1.31645 229.942 1.09961 229.006 1.09961H199.186C198.231 1.09961 197.424 1.32476 196.872 1.87606L196.872 1.87606C196.359 2.38972 196.166 3.18524 196.166 4.11961V12.5896C196.166 13.5314 196.362 14.3301 196.852 14.8818L196.872 14.9038L196.894 14.9233C197.445 15.4137 198.244 15.6096 199.186 15.6096H205.616V38.1296H199.186C198.231 38.1296 197.424 38.3548 196.872 38.9061C196.359 39.4197 196.166 40.2152 196.166 41.1496V49.4796C196.166 50.4214 196.362 51.2201 196.852 51.7718Z" stroke="white"/>
<path d="M149.3 51.7718L149.32 51.7938L149.342 51.8133C149.893 52.3037 150.692 52.4996 151.634 52.4996H187.264C188.198 52.4996 188.994 52.3068 189.507 51.7932C190.059 51.2419 190.284 50.4342 190.284 49.4796V27.4296C190.284 26.4936 190.067 25.6978 189.508 25.1856C188.996 24.6265 188.2 24.4096 187.264 24.4096H177.114C176.159 24.4096 175.352 24.6348 174.8 25.1861C174.287 25.6997 174.094 26.4952 174.094 27.4296V38.2696H165.504V4.11961C165.504 3.18359 165.287 2.38784 164.728 1.8756C164.216 1.31646 163.42 1.09961 162.484 1.09961H151.634C150.679 1.09961 149.872 1.32475 149.32 1.87606L149.32 1.87606C148.807 2.38972 148.614 3.18524 148.614 4.11961V49.4796C148.614 50.4214 148.81 51.2201 149.3 51.7718Z" stroke="white"/>
<path d="M105.797 51.7718L105.817 51.7938L105.839 51.8133C106.391 52.3037 107.189 52.4996 108.131 52.4996H137.951C138.885 52.4996 139.681 52.3068 140.195 51.7932C140.746 51.2419 140.971 50.4342 140.971 49.4796V41.1496C140.971 40.2136 140.754 39.4178 140.195 38.9056C139.683 38.3465 138.887 38.1296 137.951 38.1296H131.661V15.6096H137.951C138.885 15.6096 139.681 15.4168 140.195 14.9032C140.746 14.3519 140.971 13.5442 140.971 12.5896V4.11961C140.971 3.18357 140.754 2.38782 140.195 1.87559C139.683 1.31645 138.887 1.09961 137.951 1.09961H108.131C107.177 1.09961 106.369 1.32475 105.818 1.87606L105.818 1.87606C105.304 2.38972 105.111 3.18524 105.111 4.11961V12.5896C105.111 13.5314 105.307 14.3301 105.797 14.8818L105.817 14.9038L105.839 14.9233C106.391 15.4137 107.189 15.6096 108.131 15.6096H114.561V38.1296H108.131C107.177 38.1296 106.369 38.3548 105.818 38.9061C105.304 39.4197 105.111 40.2152 105.111 41.1496V49.4796C105.111 50.4214 105.307 51.2201 105.797 51.7718Z" stroke="white"/>
<path d="M63.6459 51.7718L63.6654 51.7938L63.6874 51.8133C64.2391 52.3037 65.0378 52.4996 65.9796 52.4996H76.8296C77.764 52.4996 78.5595 52.3068 79.0731 51.7932C79.6244 51.2419 79.8496 50.4342 79.8496 49.4796V36.1896H91.5296C92.464 36.1896 93.2595 35.9968 93.7731 35.4832C94.3244 34.9319 94.5496 34.1242 94.5496 33.1696V24.7696C94.5496 23.8336 94.3328 23.0378 93.7736 22.5256C93.2614 21.9665 92.4656 21.7496 91.5296 21.7496H79.8496V15.4696H97.1996C98.134 15.4696 98.9295 15.2768 99.4431 14.7632C99.9944 14.2119 100.22 13.4042 100.22 12.4496V4.11961C100.22 3.18358 100.003 2.38783 99.4436 1.8756C98.9314 1.31646 98.1356 1.09961 97.1996 1.09961H65.9796C65.025 1.09961 64.2173 1.32475 63.666 1.87606L63.666 1.87606C63.1524 2.38972 62.9596 3.18524 62.9596 4.11961V49.4796C62.9596 50.4214 63.1555 51.2201 63.6459 51.7718Z" stroke="white"/>
<path d="M1.1863 51.7718L1.20584 51.7938L1.22782 51.8133C1.77955 52.3037 2.57822 52.4996 3.52 52.4996H36.84C37.7744 52.4996 38.5699 52.3068 39.0836 51.7932C39.6349 51.2419 39.86 50.4342 39.86 49.4796V41.2896C39.86 40.3536 39.6432 39.5578 39.084 39.0456C38.5718 38.4865 37.776 38.2696 36.84 38.2696H17.39V37.2996C17.39 36.9485 17.4178 36.6815 17.4639 36.4879C17.5051 36.3147 17.5537 36.2312 17.5823 36.1958C17.7825 36.0395 18.1785 35.8588 18.8388 35.6827L18.8499 35.6798L18.8607 35.6763L28.3761 32.6678C28.3769 32.6676 28.3776 32.6673 28.3784 32.6671C31.7903 31.6243 34.5248 30.1451 36.5548 28.2117C38.6408 26.225 39.65 23.3942 39.65 19.7996V13.2196C39.65 9.3461 38.5478 6.32519 36.2713 4.24417C34.0488 2.12296 30.875 1.09961 26.83 1.09961H6.18C5.22543 1.09961 4.41775 1.32475 3.86645 1.87606L4.22 2.22961L3.86645 1.87606C3.35279 2.38972 3.16 3.18524 3.16 4.11961V12.3096C3.16 13.2514 3.35587 14.0501 3.8463 14.6018L3.86584 14.6238L3.88782 14.6433C4.43955 15.1337 5.23822 15.3296 6.18 15.3296H21.37C22.0311 15.3296 22.3504 15.4671 22.4864 15.6032L22.5025 15.6192L22.5199 15.6337C22.6163 15.714 22.76 15.9736 22.76 16.6496C22.76 17.3482 22.6265 17.781 22.44 18.0296L22.4273 18.0466L22.416 18.0646C22.2873 18.2706 21.9563 18.5076 21.2487 18.6845L21.2345 18.6881L21.2205 18.6925L11.8446 21.6312C10.236 22.1045 8.74163 22.6736 7.36263 23.3393C5.94933 24.0216 4.72845 24.9492 3.70371 26.1204C2.66839 27.3036 1.86898 28.8158 1.29321 30.639L1.29314 30.639L1.29073 30.6471C0.758605 32.437 0.5 34.7063 0.5 37.4396V49.4796C0.5 50.4214 0.695869 51.2201 1.1863 51.7718Z" stroke="white"/>
</svg>
