<svg width="549" height="60" viewBox="0 0 549 60" fill="none" xmlns="http://www.w3.org/2000/svg">
<path d="M546.903 42.8857C546.386 42.3682 545.753 42.0992 545.03 42.0992H513.61V38.0592H539.83C540.553 38.0592 541.186 37.7902 541.703 37.2728C542.221 36.7553 542.49 36.1227 542.49 35.3992V24.9992C542.49 24.2758 542.221 23.6431 541.703 23.1257C541.186 22.6082 540.553 22.3392 539.83 22.3392H513.61V18.2992H544.23C544.953 18.2992 545.586 18.0302 546.103 17.5128C546.621 16.9953 546.89 16.3627 546.89 15.6392V4.35922C546.89 3.63576 546.621 3.0031 546.103 2.48567C545.586 1.96822 544.953 1.69922 544.23 1.69922H494.47C493.746 1.69922 493.113 1.96823 492.596 2.48567C492.079 3.0031 491.81 3.63576 491.81 4.35922V56.0392C491.81 56.7627 492.079 57.3953 492.596 57.9128C493.113 58.4302 493.746 58.6992 494.47 58.6992H545.03C545.753 58.6992 546.386 58.4302 546.903 57.9128C547.421 57.3953 547.69 56.7627 547.69 56.0392V44.7592C547.69 44.0358 547.421 43.4031 546.903 42.8857Z" stroke="white"/>
<path d="M479.094 42.0857C478.577 41.5682 477.944 41.2992 477.221 41.2992H450.441V4.35922C450.441 3.63578 450.172 3.00312 449.654 2.48567C449.137 1.96823 448.504 1.69922 447.781 1.69922H430.501C429.777 1.69922 429.145 1.96822 428.627 2.48567C428.11 3.00312 427.841 3.63578 427.841 4.35922V56.0392C427.841 56.7627 428.11 57.3953 428.627 57.9128C429.145 58.4302 429.777 58.6992 430.501 58.6992H477.221C477.944 58.6992 478.577 58.4302 479.094 57.9128C479.612 57.3953 479.881 56.7627 479.881 56.0392V43.9592C479.881 43.2358 479.612 42.6031 479.094 42.0857Z" stroke="white"/>
<path d="M372.119 55.6578L372.119 55.6578L372.123 55.6474L374.004 50.3792H392.82L394.701 55.6474L394.701 55.6474L394.705 55.6578C395.076 56.6269 395.597 57.3941 396.291 57.9182C396.989 58.4458 397.825 58.6992 398.772 58.6992H413.892C414.496 58.6992 415.026 58.4927 415.446 58.0728C415.902 57.616 416.152 57.0657 416.152 56.4392V56.3978L416.145 56.357L416.065 55.877L416.059 55.8366L416.045 55.7978L398.608 4.68469C398.365 3.90098 397.913 3.21523 397.268 2.62925C396.566 1.99096 395.634 1.69922 394.532 1.69922H372.292C371.19 1.69922 370.258 1.99096 369.556 2.62925L369.886 2.99213L369.556 2.62925C368.911 3.21523 368.459 3.901 368.217 4.68475L350.779 55.7978L350.766 55.8366L350.759 55.877L350.679 56.357L350.672 56.3978V56.4392C350.672 57.0417 350.877 57.5831 351.273 58.0446L351.298 58.0738L351.327 58.0988C351.788 58.4944 352.33 58.6992 352.932 58.6992H368.052C368.999 58.6992 369.835 58.4458 370.534 57.9182C371.227 57.3941 371.749 56.6269 372.119 55.6578ZM388.393 33.7792H378.431L383.412 19.187L388.393 33.7792Z" stroke="white"/>
<path d="M340.563 41.2992H326.583V19.0992H340.563C341.287 19.0992 341.919 18.8302 342.437 18.3128C342.954 17.7953 343.223 17.1627 343.223 16.4392V4.35922C343.223 3.63576 342.954 3.0031 342.437 2.48567C341.919 1.96823 341.287 1.69922 340.563 1.69922H289.843C289.12 1.69922 288.487 1.96822 287.97 2.48567C287.452 3.00312 287.183 3.63578 287.183 4.35922V16.4392C287.183 17.1627 287.452 17.7953 287.97 18.3128C288.487 18.8302 289.12 19.0992 289.843 19.0992H303.983V41.2992H289.843C289.12 41.2992 288.487 41.5682 287.97 42.0857C287.452 42.6031 287.183 43.2358 287.183 43.9592V56.0392C287.183 56.7627 287.452 57.3953 287.97 57.9128C288.487 58.4302 289.12 58.6992 289.843 58.6992H340.563C341.287 58.6992 341.919 58.4302 342.437 57.9128C342.954 57.3953 343.223 56.7627 343.223 56.0392V43.9592C343.223 43.2358 342.954 42.6031 342.437 42.0857C341.919 41.5682 341.287 41.2992 340.563 41.2992Z" stroke="white"/>
<path d="M275.188 42.0857C274.671 41.5682 274.038 41.2992 273.315 41.2992H246.535V4.35922C246.535 3.63578 246.266 3.00312 245.748 2.48567C245.231 1.96823 244.598 1.69922 243.875 1.69922H226.595C225.871 1.69922 225.238 1.96822 224.721 2.48567C224.204 3.00312 223.935 3.63578 223.935 4.35922V56.0392C223.935 56.7627 224.204 57.3953 224.721 57.9128C225.238 58.4302 225.871 58.6992 226.595 58.6992H273.315C274.038 58.6992 274.671 58.4302 275.188 57.9128C275.706 57.3953 275.975 56.7627 275.975 56.0392V43.9592C275.975 43.2358 275.706 42.6031 275.188 42.0857Z" stroke="white"/>
<path d="M204.626 41.2992H190.646V19.0992H204.626C205.349 19.0992 205.982 18.8302 206.499 18.3128C207.017 17.7953 207.286 17.1627 207.286 16.4392V4.35922C207.286 3.63576 207.017 3.0031 206.499 2.48567C205.982 1.96823 205.349 1.69922 204.626 1.69922H153.906C153.182 1.69922 152.55 1.96822 152.032 2.48567C151.515 3.00311 151.246 3.63577 151.246 4.35922V16.4392C151.246 17.1627 151.515 17.7953 152.032 18.3128C152.55 18.8302 153.182 19.0992 153.906 19.0992H168.046V41.2992H153.906C153.182 41.2992 152.55 41.5682 152.032 42.0857C151.515 42.6031 151.246 43.2358 151.246 43.9592V56.0392C151.246 56.7627 151.515 57.3953 152.032 57.9128C152.55 58.4302 153.182 58.6992 153.906 58.6992H204.626C205.349 58.6992 205.982 58.4302 206.499 57.9128C207.017 57.3953 207.286 56.7627 207.286 56.0392V43.9592C207.286 43.2358 207.017 42.6031 206.499 42.0857C205.982 41.5682 205.349 41.2992 204.626 41.2992Z" stroke="white"/>
<path d="M140.211 2.48567C139.693 1.96823 139.061 1.69922 138.337 1.69922H87.4571C86.7337 1.69922 86.101 1.96822 85.5836 2.48567C85.0661 3.00311 84.7971 3.63577 84.7971 4.35922V56.0392C84.7971 56.7627 85.0661 57.3953 85.5836 57.9128C86.101 58.4302 86.7337 58.6992 87.4571 58.6992H104.737C105.461 58.6992 106.093 58.4302 106.611 57.9128C107.128 57.3953 107.397 56.7627 107.397 56.0392V40.6992H133.137C133.861 40.6992 134.493 40.4302 135.011 39.9128C135.528 39.3953 135.797 38.7627 135.797 38.0392V25.9592C135.797 25.2358 135.528 24.6031 135.011 24.0857C134.493 23.5682 133.861 23.2992 133.137 23.2992H107.397V19.1792H138.337C139.061 19.1792 139.693 18.9102 140.211 18.3928C140.728 17.8753 140.997 17.2427 140.997 16.5192V4.35922C140.997 3.63577 140.728 3.00311 140.211 2.48567Z" stroke="white"/>
<path d="M23.1602 28.0002L23.158 28.0019C18.6965 31.4011 11.9391 35.9511 2.87737 41.6547C1.85943 42.2774 1.1605 43.0312 0.900212 43.9423C0.673733 44.7349 0.560974 45.5546 0.560974 46.3996V56.2396C0.560974 56.9631 0.829978 57.5957 1.34742 58.1132C1.86486 58.6306 2.49753 58.8996 3.22097 58.8996H51.461C52.1844 58.8996 52.8171 58.6306 53.3345 58.1132C53.852 57.5957 54.121 56.9631 54.121 56.2396V44.1596C54.121 43.4362 53.852 42.8035 53.3345 42.2861C52.8171 41.7686 52.1844 41.4996 51.461 41.4996H32.0724L32.616 41.1372C32.6162 41.1371 32.6164 41.1369 32.6166 41.1368C36.9938 38.2542 40.446 35.8195 42.9682 33.8341C45.561 31.8352 47.7027 29.6413 49.3875 27.2507C51.1491 24.8274 52.041 22.2202 52.041 19.4396C52.041 13.6008 49.9862 9.04516 45.8468 5.84409C41.7232 2.65513 35.7019 1.09961 27.861 1.09961C22.5844 1.09961 17.9572 1.90716 13.9909 3.53714C10.0237 5.16752 6.92978 7.51505 4.73411 10.589L4.73311 10.5904C2.58731 13.6165 1.52097 17.1599 1.52097 21.1996C1.52097 21.8621 1.75706 22.4573 2.20469 22.9689L2.22664 22.9939L2.25172 23.0159C2.76329 23.4635 3.35848 23.6996 4.02097 23.6996H20.261H20.2616H20.2622H20.2629H20.2635H20.2641H20.2648H20.2654H20.2661H20.2667H20.2673H20.268H20.2687H20.2693H20.27H20.2706H20.2713H20.272H20.2726H20.2733H20.274H20.2746H20.2753H20.276H20.2767H20.2774H20.278H20.2787H20.2794H20.2801H20.2808H20.2815H20.2822H20.2829H20.2836H20.2843H20.2851H20.2858H20.2865H20.2872H20.2879H20.2887H20.2894H20.2901H20.2908H20.2916H20.2923H20.293H20.2938H20.2945H20.2953H20.296H20.2968H20.2975H20.2983H20.299H20.2998H20.3006H20.3013H20.3021H20.3029H20.3036H20.3044H20.3052H20.306H20.3068H20.3075H20.3083H20.3091H20.3099H20.3107H20.3115H20.3123H20.3131H20.3139H20.3147H20.3155H20.3163H20.3172H20.318H20.3188H20.3196H20.3204H20.3213H20.3221H20.3229H20.3238H20.3246H20.3254H20.3263H20.3271H20.328H20.3288H20.3297H20.3305H20.3314H20.3322H20.3331H20.3339H20.3348H20.3357H20.3366H20.3374H20.3383H20.3392H20.3401H20.3409H20.3418H20.3427H20.3436H20.3445H20.3454H20.3463H20.3472H20.3481H20.349H20.3499H20.3508H20.3517H20.3526H20.3536H20.3545H20.3554H20.3563H20.3572H20.3582H20.3591H20.36H20.361H20.3619H20.3629H20.3638H20.3647H20.3657H20.3666H20.3676H20.3686H20.3695H20.3705H20.3714H20.3724H20.3734H20.3743H20.3753H20.3763H20.3773H20.3782H20.3792H20.3802H20.3812H20.3822H20.3832H20.3842H20.3852H20.3862H20.3872H20.3882H20.3892H20.3902H20.3912H20.3922H20.3932H20.3943H20.3953H20.3963H20.3973H20.3984H20.3994H20.4004H20.4015H20.4025H20.4035H20.4046H20.4056H20.4067H20.4077H20.4088H20.4098H20.4109H20.412H20.413H20.4141H20.4152H20.4162H20.4173H20.4184H20.4195H20.4205H20.4216H20.4227H20.4238H20.4249H20.426H20.4271H20.4282H20.4293H20.4304H20.4315H20.4326H20.4337H20.4348H20.4359H20.437H20.4382H20.4393H20.4404H20.4415H20.4427H20.4438H20.4449H20.4461H20.4472H20.4483H20.4495H20.4506H20.4518H20.4529H20.4541H20.4552H20.4564H20.4576H20.4587H20.4599H20.4611H20.4622H20.4634H20.4646H20.4658H20.4669H20.4681H20.4693H20.4705H20.4717H20.4729H20.4741H20.4753H20.4765H20.4777H20.4789H20.4801H20.4813H20.4825H20.4837H20.4849H20.4862H20.4874H20.4886H20.4898H20.4911H20.4923H20.4935H20.4948H20.496H20.4972H20.4985H20.4997H20.501H20.5022H20.5035H20.5047H20.506H20.5073H20.5085H20.5098H20.5111H20.5123H20.5136H20.5149H20.5161H20.5174H20.5187H20.52H20.5213H20.5226H20.5239H20.5252H20.5265H20.5278H20.5291H20.5304H20.5317H20.533H20.5343H20.5356H20.5369H20.5383H20.5396H20.5409H20.5422H20.5436H20.5449H20.5462H20.5476H20.5489H20.5502H20.5516H20.5529H20.5543H20.5556H20.557H20.5583H20.5597H20.5611H20.5624H20.5638H20.5652H20.5665H20.5679H20.5693H20.5707H20.572H20.5734H20.5748H20.5762H20.5776H20.579H20.5804H20.5818H20.5832H20.5846H20.586H20.5874H20.5888H20.5902H20.5916H20.593H20.5945H20.5959H20.5973H20.5987H20.6002H20.6016H20.603H20.6045H20.6059H20.6073H20.6088H20.6102H20.6117H20.6131H20.6146H20.616H20.6175H20.619H20.6204H20.6219H20.6234H20.6248H20.6263H20.6278H20.6293H20.6307H20.6322H20.6337H20.6352H20.6367H20.6382H20.6397H20.6412H20.6427H20.6442H20.6457H20.6472H20.6487H20.6502H20.6517H20.6532H20.6548H20.6563H20.6578H20.6593H20.6609H20.6624H20.6639H20.6655H20.667H20.6686H20.6701H20.6716H20.6732H20.6747H20.6763H20.6779H20.6794H20.681H20.6825H20.6841H20.6857H20.6872H20.6888H20.6904H20.692H20.6936H20.6951H20.6967H20.6983H20.6999H20.7015H20.7031H20.7047H20.7063H20.7079H20.7095H20.7111H20.7127H20.7143H20.7159H20.7176H20.7192H20.7208H20.7224H20.7241H20.7257H20.7273H20.7289H20.7306H20.7322H20.7339H20.7355H20.7372H20.7388H20.7405H20.7421H20.7438H20.7454H20.7471H20.7488H20.7504H20.7521H20.7538H20.7554H20.7571H20.7588H20.7605H20.7622H20.7638H20.7655H20.7672H20.7689H20.7706H20.7723H20.774H20.7757H20.7774H20.7791H20.7808H20.7825H20.7843H20.786H20.7877H20.7894H20.7911H20.7929H20.7946H20.7963H20.7981H20.7998H20.8015H20.8033H20.805H20.8068H20.8085H20.8103H20.812H20.8138H20.8155H20.8173H20.8191H20.8208H20.8226H20.8244H20.8262H20.8279H20.8297H20.8315H20.8333H20.8351H20.8368H20.8386H20.8404H20.8422H20.844H20.8458H20.8476H20.8494H20.8512H20.8531H20.8549H20.8567H20.8585H20.8603H20.8621H20.864H20.8658H20.8676H20.8695H20.8713H20.8731H20.875H20.8768H20.8787H20.8805H20.8823H20.8842H20.8861H20.8879H20.8898H20.8916H20.8935H20.8954H20.8972H20.8991H20.901C21.2483 23.6996 21.575 23.6707 21.879 23.6099L21.9096 23.6038L21.9391 23.594C22.4466 23.4248 22.7738 23.013 22.9672 22.5002C23.0922 22.1854 23.2314 21.6153 23.3881 20.8336C23.5826 20.1132 23.947 19.4049 24.4941 18.7085C24.9422 18.1382 25.7925 17.7796 27.221 17.7796C28.4699 17.7796 29.0534 18.0734 29.2791 18.428L29.285 18.4373L29.2914 18.4463C29.5814 18.8607 29.761 19.5158 29.761 20.4796C29.761 21.2264 29.2963 22.2357 28.1816 23.5339C27.0817 24.8149 25.4137 26.3034 23.1602 28.0002Z" stroke="white"/>
</svg>
