<svg width="283" height="60" viewBox="0 0 283 60" fill="none" xmlns="http://www.w3.org/2000/svg">
<path d="M278.901 40.6996H264.921V18.4996H278.901C279.624 18.4996 280.257 18.2306 280.774 17.7132C281.292 17.1957 281.561 16.5631 281.561 15.8396V3.75961C281.561 3.03615 281.292 2.40349 280.774 1.88606C280.257 1.36862 279.624 1.09961 278.901 1.09961H228.181C227.457 1.09961 226.825 1.36861 226.307 1.88606C225.79 2.40351 225.521 3.03617 225.521 3.75961V15.8396C225.521 16.563 225.79 17.1957 226.307 17.7132C226.825 18.2306 227.457 18.4996 228.181 18.4996H242.321V40.6996H228.181C227.457 40.6996 226.825 40.9686 226.307 41.4861C225.79 42.0035 225.521 42.6362 225.521 43.3596V55.4396C225.521 56.163 225.79 56.7957 226.307 57.3132C226.825 57.8306 227.457 58.0996 228.181 58.0996H278.901C279.624 58.0996 280.257 57.8306 280.774 57.3132C281.292 56.7957 281.561 56.1631 281.561 55.4396V43.3596C281.561 42.6362 281.292 42.0035 280.774 41.4861C280.257 40.9686 279.624 40.6996 278.901 40.6996Z" stroke="white"/>
<path d="M176.537 2.90633L176.537 2.90629L176.532 2.89961C175.642 1.71319 174.457 1.09961 173.012 1.09961H160.052C159.329 1.09961 158.696 1.36862 158.179 1.88606C157.661 2.4035 157.392 3.03616 157.392 3.75961V55.4396C157.392 56.1631 157.661 56.7957 158.179 57.3132C158.696 57.8306 159.329 58.0996 160.052 58.0996H174.932C175.656 58.0996 176.288 57.8306 176.806 57.3132C177.323 56.7957 177.592 56.1631 177.592 55.4396V35.1275L194.135 56.2226C194.135 56.2236 194.136 56.2245 194.137 56.2255C195.073 57.4535 196.28 58.0996 197.732 58.0996H210.612C211.336 58.0996 211.968 57.8306 212.486 57.3132C213.003 56.7957 213.272 56.1631 213.272 55.4396V3.75961C213.272 3.03615 213.003 2.40349 212.486 1.88606C211.968 1.36862 211.336 1.09961 210.612 1.09961H195.732C195.009 1.09961 194.376 1.36861 193.859 1.88606C193.341 2.4035 193.072 3.03616 193.072 3.75961V25.7368L176.537 2.90633Z" stroke="white"/>
<path d="M106.55 55.0582L106.551 55.0582L106.554 55.0478L108.436 49.7796H127.251L129.133 55.0478L129.132 55.0478L129.136 55.0582C129.507 56.0273 130.028 56.7945 130.722 57.3185C131.42 57.8461 132.257 58.0996 133.203 58.0996H148.323C148.927 58.0996 149.457 57.8931 149.877 57.4732C150.334 57.0164 150.583 56.4661 150.583 55.8396V55.7982L150.577 55.7574L150.497 55.2774L150.49 55.237L150.477 55.1982L133.039 4.08508C132.796 3.30136 132.344 2.61561 131.7 2.02964C130.998 1.39136 130.065 1.09961 128.963 1.09961H106.723C105.621 1.09961 104.689 1.39136 103.987 2.02964L104.317 2.39252L103.987 2.02964C103.343 2.61563 102.891 3.3014 102.648 4.08514L85.2102 55.1982L85.197 55.237L85.1903 55.2774L85.1103 55.7574L85.1035 55.7982V55.8396C85.1035 56.4421 85.3082 56.9835 85.7038 57.445L85.7289 57.4742L85.7581 57.4992C86.2196 57.8948 86.7609 58.0996 87.3634 58.0996H102.483C103.43 58.0996 104.267 57.8461 104.965 57.3185C105.658 56.7945 106.18 56.0273 106.55 55.0582ZM122.824 33.1796H112.862L117.843 18.5874L122.824 33.1796Z" stroke="white"/>
<path d="M42.1451 56.2173L42.148 56.216C46.2707 54.3716 49.5176 51.8128 51.8687 48.5329C54.2794 45.2446 55.4838 41.4876 55.4838 37.2796C55.4838 32.5051 54.3164 28.5751 51.9389 25.5333C49.5912 22.4764 46.6878 20.3365 43.2332 19.1292C40.2275 18.0147 37.2763 17.4599 34.3826 17.4721L43.6289 4.69271L43.6345 4.68494L43.6398 4.67696C43.9061 4.27745 44.0438 3.83476 44.0438 3.35961C44.0438 2.74239 43.8004 2.21414 43.3382 1.80522C42.9292 1.34298 42.401 1.09961 41.7838 1.09961H25.7038C24.2171 1.09961 23.0252 1.7046 22.1828 2.90053L8.83303 19.7676C8.83282 19.7679 8.8326 19.7682 8.83239 19.7685C3.52005 26.4225 0.803772 32.5311 0.803772 38.0796C0.803772 42.3432 2.03628 46.0794 4.50872 49.2661L4.51133 49.2694C6.97264 52.3871 10.3013 54.7823 14.477 56.4634L14.477 56.4635L14.4843 56.4663C18.7088 58.0911 23.3841 58.8996 28.5038 58.8996C33.5238 58.8996 38.0737 58.0087 42.1451 56.2173ZM32.6948 34.1676L32.6947 34.1677L32.7026 34.1731C33.8949 34.9839 34.4838 36.1068 34.4838 37.5996C34.4838 39.0924 33.8949 40.2154 32.7026 41.0261L32.7026 41.0261L32.6948 41.0316C31.5143 41.8677 30.0471 42.2996 28.2638 42.2996C26.483 42.2996 24.9861 41.8689 23.7489 41.0289C22.6121 40.222 22.0438 39.0994 22.0438 37.5996C22.0438 36.0998 22.6121 34.9773 23.7489 34.1704C24.9861 33.3304 26.483 32.8996 28.2638 32.8996C30.0471 32.8996 31.5143 33.3315 32.6948 34.1676Z" stroke="white"/>
</svg>
