<svg width="206" height="55" viewBox="0 0 206 55" fill="none" xmlns="http://www.w3.org/2000/svg">
<path d="M169.458 51.7718L169.478 51.7938L169.5 51.8133C170.052 52.3037 170.85 52.4996 171.792 52.4996H201.612C202.546 52.4996 203.342 52.3068 203.856 51.7932C204.407 51.2419 204.632 50.4342 204.632 49.4796V41.1496C204.632 40.2136 204.415 39.4178 203.856 38.9056C203.344 38.3465 202.548 38.1296 201.612 38.1296H195.322V15.6096H201.612C202.546 15.6096 203.342 15.4168 203.856 14.9032C204.407 14.3519 204.632 13.5442 204.632 12.5896V4.11961C204.632 3.18357 204.415 2.38782 203.856 1.87559C203.344 1.31645 202.548 1.09961 201.612 1.09961H171.792C170.837 1.09961 170.03 1.32476 169.478 1.87606L169.478 1.87606C168.965 2.38972 168.772 3.18524 168.772 4.11961V12.5896C168.772 13.5314 168.968 14.3301 169.458 14.8818L169.478 14.9038L169.5 14.9233C170.052 15.4137 170.85 15.6096 171.792 15.6096H178.222V38.1296H171.792C170.837 38.1296 170.03 38.3548 169.478 38.9061C168.965 39.4197 168.772 40.2152 168.772 41.1496V49.4796C168.772 50.4214 168.968 51.2201 169.458 51.7718Z" stroke="white"/>
<path d="M117.873 51.7718L117.893 51.7938L117.915 51.8133C118.466 52.3037 119.265 52.4996 120.207 52.4996H130.707C131.641 52.4996 132.437 52.3068 132.95 51.7932C133.502 51.2419 133.727 50.4342 133.727 49.4796V27.7699L144.697 41.0494V49.4796C144.697 50.4214 144.893 51.2201 145.383 51.7718L145.403 51.7938L145.425 51.8133C145.976 52.3037 146.775 52.4996 147.717 52.4996H158.217C159.151 52.4996 159.947 52.3068 160.46 51.7932C161.012 51.2419 161.237 50.4342 161.237 49.4796V4.11961C161.237 3.18358 161.02 2.38783 160.461 1.8756C159.949 1.31646 159.153 1.09961 158.217 1.09961H147.717C146.762 1.09961 145.955 1.32476 145.403 1.87605C144.89 2.38971 144.697 3.18523 144.697 4.11961V17.6976L131.995 3.16214C131.995 3.1619 131.994 3.16165 131.994 3.1614C131.354 2.4234 130.668 1.88043 129.93 1.56275C129.241 1.24622 128.421 1.09961 127.487 1.09961H120.207C119.252 1.09961 118.445 1.32475 117.893 1.87606L117.893 1.87606C117.38 2.38972 117.187 3.18524 117.187 4.11961V49.4796C117.187 50.4214 117.383 51.2201 117.873 51.7718Z" stroke="white"/>
<path d="M65.7099 51.7938L65.6904 51.7718C65.2 51.2201 65.0041 50.4214 65.0041 49.4796V30.9996C65.0041 29.5516 65.221 27.9026 65.6469 26.0572L65.6496 26.0454L65.6498 26.0454C66.1226 24.2012 66.8295 22.0588 67.7673 19.6205C67.7673 19.6203 67.7674 19.6202 67.7674 19.6201L73.8549 3.73677C74.1618 2.87037 74.6379 2.18945 75.3067 1.74358L75.3143 1.73854L75.322 1.73378C76.0284 1.29909 76.8963 1.09961 77.8941 1.09961H96.7241C97.675 1.09961 98.5007 1.29906 99.1639 1.73856C99.8791 2.18132 100.383 2.86218 100.693 3.73678L106.781 19.6201L65.7099 51.7938ZM65.7099 51.7938L65.7319 51.8133M65.7099 51.7938L65.7319 51.8133M65.7319 51.8133C66.2836 52.3037 67.0823 52.4996 68.0241 52.4996H78.3141C79.2485 52.4996 80.044 52.3068 80.5576 51.7932C81.1089 51.2419 81.3341 50.4342 81.3341 49.4796V40.1796H92.7241V49.4796C92.7241 50.4342 92.9492 51.2419 93.5005 51.7932L93.5201 51.8127M65.7319 51.8133L93.5201 51.8127M93.5201 51.8127L93.5417 51.83M93.5201 51.8127L93.5417 51.83M93.5417 51.83C94.1348 52.3044 94.9673 52.4996 95.9541 52.4996H106.524C107.458 52.4996 108.254 52.3068 108.768 51.7932C109.319 51.2419 109.544 50.4342 109.544 49.4796V30.9996C109.544 29.5478 109.303 27.8966 108.83 26.0512M93.5417 51.83L108.83 26.0512M108.83 26.0512C108.403 24.203 107.719 22.0585 106.781 19.6207L108.83 26.0512ZM88.2505 15.7432L88.2701 15.7627L88.2917 15.78C88.4345 15.8943 88.5993 16.1098 88.7654 16.4764L91.8461 26.4396H82.2121L85.2929 16.4762C85.4564 16.1128 85.602 15.8872 85.7187 15.7627C85.8621 15.6544 86.0034 15.6096 86.1541 15.6096H87.9041C88.0604 15.6096 88.1638 15.6564 88.2505 15.7432Z" stroke="white"/>
<path d="M5.61142 49.5866L5.61137 49.5867L5.61861 49.5924C7.23317 50.8644 9.42984 51.8213 12.1778 52.4849C14.9858 53.1985 18.5535 53.5496 22.868 53.5496C26.9041 53.5496 30.2634 53.1983 32.9333 52.4837C35.5892 51.8193 37.716 50.8611 39.2833 49.5877L39.2847 49.5866C40.8898 48.2733 41.9989 46.7038 42.5918 44.8796C43.2187 43.0929 43.528 41.1008 43.528 38.9096V32.1896C43.528 27.9439 42.333 24.6626 39.8645 22.4397C37.3822 20.1577 32.8951 19.0896 26.578 19.0896C24.6953 19.0896 22.9941 19.1837 21.476 19.3735L21.4741 19.3737C20.2731 19.5287 19.1772 19.732 18.188 19.9848V19.0996C18.188 18.2612 18.2622 17.5974 18.3982 17.0953C18.5349 16.5904 18.7232 16.2887 18.921 16.1213L18.9293 16.1143L18.9372 16.107C19.1556 15.9054 19.5093 15.7243 20.0447 15.5958C20.5772 15.468 21.2584 15.3996 22.098 15.3996H35.188C36.1224 15.3996 36.9179 15.2068 37.4316 14.6932C37.9829 14.1419 38.208 13.3342 38.208 12.3796V4.11961C38.208 3.18359 37.9912 2.38783 37.432 1.8756C36.9198 1.31645 36.1241 1.09961 35.188 1.09961H19.088C12.4729 1.09961 7.76271 2.43051 5.14187 5.24914L5.14186 5.24912L5.13866 5.25263C2.61322 8.02089 1.36804 11.602 1.36804 15.9496V38.9096C1.36804 41.0994 1.65363 43.0892 2.23243 44.8739L2.23229 44.8739L2.23631 44.8854C2.87604 46.7061 4.00681 48.2737 5.61142 49.5866ZM26.0302 32.2782L26.0389 32.2862L26.048 32.2937C26.4994 32.6699 26.708 33.1149 26.708 33.6596V37.7896C26.708 38.3892 26.4919 38.8837 26.0397 39.3023C25.8596 39.4479 25.4953 39.6014 24.8641 39.7121C24.2388 39.8218 23.4131 39.8796 22.378 39.8796C21.3906 39.8796 20.6009 39.8219 20 39.7127C19.3951 39.6027 19.039 39.4502 18.8565 39.3024C18.4042 38.8837 18.188 38.3892 18.188 37.7896V33.6596C18.188 33.1149 18.3967 32.6699 18.8481 32.2937L18.8572 32.2862L18.8659 32.2782C19.0459 32.1132 19.3997 31.9442 20.0086 31.8224C20.6057 31.703 21.3922 31.6396 22.378 31.6396C23.4116 31.6396 24.2341 31.7031 24.8558 31.8231C25.4916 31.9457 25.8532 32.1159 26.0302 32.2782Z" stroke="white"/>
</svg>
