<svg width="123" height="60" viewBox="0 0 123 60" fill="none" xmlns="http://www.w3.org/2000/svg">
<path d="M90.7246 28.0002L90.7223 28.0019C86.2608 31.4011 79.5035 35.9511 70.4417 41.6547C69.4238 42.2774 68.7248 43.0312 68.4645 43.9423C68.2381 44.7349 68.1253 45.5546 68.1253 46.3996V56.2396C68.1253 56.9631 68.3943 57.5957 68.9118 58.1132C69.4292 58.6306 70.0619 58.8996 70.7853 58.8996H119.025C119.749 58.8996 120.381 58.6306 120.899 58.1132C121.416 57.5957 121.685 56.9631 121.685 56.2396V44.1596C121.685 43.4362 121.416 42.8035 120.899 42.2861C120.381 41.7686 119.749 41.4996 119.025 41.4996H99.6367L100.18 41.1372C100.181 41.1371 100.181 41.1369 100.181 41.1368C104.558 38.2542 108.01 35.8195 110.533 33.8341C113.125 31.8352 115.267 29.6413 116.952 27.2507C118.713 24.8274 119.605 22.2202 119.605 19.4396C119.605 13.6008 117.551 9.04516 113.411 5.84409C109.288 2.65513 103.266 1.09961 95.4253 1.09961C90.1487 1.09961 85.5215 1.90716 81.5553 3.53714C77.588 5.16752 74.4941 7.51505 72.2984 10.589L72.2974 10.5904C70.1516 13.6165 69.0853 17.1599 69.0853 21.1996C69.0853 21.8621 69.3214 22.4573 69.769 22.9689L69.791 22.9939L69.8161 23.0159C70.3276 23.4635 70.9228 23.6996 71.5853 23.6996H87.8253H87.8259H87.8266H87.8272H87.8278H87.8285H87.8291H87.8297H87.8304H87.831H87.8317H87.8323H87.833H87.8336H87.8343H87.835H87.8356H87.8363H87.837H87.8376H87.8383H87.839H87.8397H87.8403H87.841H87.8417H87.8424H87.8431H87.8438H87.8445H87.8452H87.8459H87.8466H87.8473H87.848H87.8487H87.8494H87.8501H87.8508H87.8515H87.8523H87.853H87.8537H87.8544H87.8552H87.8559H87.8566H87.8574H87.8581H87.8589H87.8596H87.8604H87.8611H87.8619H87.8626H87.8634H87.8641H87.8649H87.8657H87.8664H87.8672H87.868H87.8688H87.8695H87.8703H87.8711H87.8719H87.8727H87.8735H87.8742H87.875H87.8758H87.8766H87.8774H87.8782H87.8791H87.8799H87.8807H87.8815H87.8823H87.8831H87.8839H87.8848H87.8856H87.8864H87.8873H87.8881H87.8889H87.8898H87.8906H87.8914H87.8923H87.8931H87.894H87.8948H87.8957H87.8966H87.8974H87.8983H87.8991H87.9H87.9009H87.9018H87.9026H87.9035H87.9044H87.9053H87.9062H87.907H87.9079H87.9088H87.9097H87.9106H87.9115H87.9124H87.9133H87.9142H87.9151H87.9161H87.917H87.9179H87.9188H87.9197H87.9207H87.9216H87.9225H87.9234H87.9244H87.9253H87.9262H87.9272H87.9281H87.9291H87.93H87.931H87.9319H87.9329H87.9338H87.9348H87.9358H87.9367H87.9377H87.9387H87.9396H87.9406H87.9416H87.9426H87.9436H87.9445H87.9455H87.9465H87.9475H87.9485H87.9495H87.9505H87.9515H87.9525H87.9535H87.9545H87.9555H87.9566H87.9576H87.9586H87.9596H87.9606H87.9617H87.9627H87.9637H87.9648H87.9658H87.9668H87.9679H87.9689H87.97H87.971H87.9721H87.9731H87.9742H87.9752H87.9763H87.9774H87.9784H87.9795H87.9806H87.9816H87.9827H87.9838H87.9849H87.986H87.987H87.9881H87.9892H87.9903H87.9914H87.9925H87.9936H87.9947H87.9958H87.9969H87.998H87.9991H88.0003H88.0014H88.0025H88.0036H88.0047H88.0059H88.007H88.0081H88.0093H88.0104H88.0115H88.0127H88.0138H88.015H88.0161H88.0173H88.0184H88.0196H88.0207H88.0219H88.0231H88.0242H88.0254H88.0266H88.0277H88.0289H88.0301H88.0313H88.0324H88.0336H88.0348H88.036H88.0372H88.0384H88.0396H88.0408H88.042H88.0432H88.0444H88.0456H88.0468H88.048H88.0493H88.0505H88.0517H88.0529H88.0542H88.0554H88.0566H88.0579H88.0591H88.0603H88.0616H88.0628H88.0641H88.0653H88.0666H88.0678H88.0691H88.0703H88.0716H88.0729H88.0741H88.0754H88.0767H88.0779H88.0792H88.0805H88.0818H88.083H88.0843H88.0856H88.0869H88.0882H88.0895H88.0908H88.0921H88.0934H88.0947H88.096H88.0973H88.0986H88.0999H88.1013H88.1026H88.1039H88.1052H88.1066H88.1079H88.1092H88.1106H88.1119H88.1132H88.1146H88.1159H88.1173H88.1186H88.12H88.1213H88.1227H88.124H88.1254H88.1268H88.1281H88.1295H88.1309H88.1322H88.1336H88.135H88.1364H88.1378H88.1391H88.1405H88.1419H88.1433H88.1447H88.1461H88.1475H88.1489H88.1503H88.1517H88.1531H88.1545H88.156H88.1574H88.1588H88.1602H88.1616H88.1631H88.1645H88.1659H88.1674H88.1688H88.1702H88.1717H88.1731H88.1746H88.176H88.1775H88.1789H88.1804H88.1818H88.1833H88.1848H88.1862H88.1877H88.1892H88.1906H88.1921H88.1936H88.1951H88.1966H88.198H88.1995H88.201H88.2025H88.204H88.2055H88.207H88.2085H88.21H88.2115H88.213H88.2145H88.2161H88.2176H88.2191H88.2206H88.2221H88.2237H88.2252H88.2267H88.2283H88.2298H88.2313H88.2329H88.2344H88.236H88.2375H88.2391H88.2406H88.2422H88.2437H88.2453H88.2469H88.2484H88.25H88.2516H88.2532H88.2547H88.2563H88.2579H88.2595H88.2611H88.2626H88.2642H88.2658H88.2674H88.269H88.2706H88.2722H88.2738H88.2754H88.277H88.2787H88.2803H88.2819H88.2835H88.2851H88.2868H88.2884H88.29H88.2916H88.2933H88.2949H88.2966H88.2982H88.2998H88.3015H88.3031H88.3048H88.3064H88.3081H88.3098H88.3114H88.3131H88.3148H88.3164H88.3181H88.3198H88.3214H88.3231H88.3248H88.3265H88.3282H88.3299H88.3316H88.3332H88.3349H88.3366H88.3383H88.34H88.3417H88.3435H88.3452H88.3469H88.3486H88.3503H88.352H88.3538H88.3555H88.3572H88.3589H88.3607H88.3624H88.3641H88.3659H88.3676H88.3694H88.3711H88.3729H88.3746H88.3764H88.3781H88.3799H88.3816H88.3834H88.3852H88.3869H88.3887H88.3905H88.3923H88.394H88.3958H88.3976H88.3994H88.4012H88.403H88.4048H88.4066H88.4084H88.4102H88.412H88.4138H88.4156H88.4174H88.4192H88.421H88.4228H88.4247H88.4265H88.4283H88.4301H88.432H88.4338H88.4356H88.4375H88.4393H88.4411H88.443H88.4448H88.4467H88.4485H88.4504H88.4522H88.4541H88.456H88.4578H88.4597H88.4616H88.4634H88.4653C88.8126 23.6996 89.1393 23.6707 89.4434 23.6099L89.4739 23.6038L89.5034 23.594C90.011 23.4248 90.3382 23.013 90.5316 22.5002C90.6565 22.1854 90.7957 21.6153 90.9524 20.8336C91.1469 20.1132 91.5113 19.4049 92.0585 18.7085C92.5065 18.1382 93.3568 17.7796 94.7853 17.7796C96.0342 17.7796 96.6178 18.0734 96.8435 18.428L96.8494 18.4373L96.8557 18.4463C97.1457 18.8607 97.3253 19.5158 97.3253 20.4796C97.3253 21.2264 96.8606 22.2357 95.746 23.5339C94.6461 24.8149 92.978 26.3034 90.7246 28.0002Z" stroke="white"/>
<path d="M32.3719 56.8064L32.372 56.8065L32.377 56.7972L51.8129 20.6447C52.2014 19.9775 52.4859 19.3264 52.659 18.6919C52.8349 18.047 52.9166 17.252 52.9166 16.3204V4.56039C52.9166 3.84236 52.6516 3.21377 52.1417 2.69849C51.6617 2.15729 51.0142 1.90039 50.2566 1.90039H4.09659C3.37314 1.90039 2.74047 2.1694 2.22303 2.68684C1.70559 3.20428 1.43658 3.83694 1.43658 4.56039V16.6404C1.43658 17.3638 1.70559 17.9965 2.22303 18.5139C2.74047 19.0314 3.37314 19.3004 4.09659 19.3004H28.8465L8.61959 55.6774L8.61427 55.687L8.60937 55.6968C8.46407 55.9874 8.39659 56.3054 8.39659 56.6404C8.39659 57.2429 8.60136 57.7843 8.99696 58.2458L9.02199 58.275L9.05119 58.3C9.51272 58.6956 10.0541 58.9004 10.6566 58.9004H28.6566C30.3169 58.9004 31.5835 58.2012 32.3719 56.8064Z" stroke="white"/>
</svg>
