<svg width="690" height="347" viewBox="0 0 690 347" fill="none" xmlns="http://www.w3.org/2000/svg">
<path d="M320.081 342.881L320.086 342.88C325.784 340.865 330.262 338.005 333.492 334.283C336.801 330.481 338.459 326.035 338.459 320.967C338.459 316.355 337.41 312.471 335.28 309.346C333.146 306.217 329.719 303.725 325.055 301.846C320.46 299.966 314.362 298.619 306.781 297.792C301.423 297.174 297.898 296.595 296.16 296.061C294.399 295.45 293.824 294.736 293.824 294.063C293.824 293.69 293.933 293.38 294.147 293.112C294.367 292.836 294.72 292.578 295.244 292.359C296.302 291.917 297.948 291.676 300.231 291.676C302.345 291.676 303.847 291.883 304.787 292.259C305.767 292.651 306.608 293.17 307.316 293.814L307.322 293.819L307.327 293.824C308.372 294.719 309.55 295.181 310.848 295.181H333.011C333.851 295.181 334.573 294.952 335.103 294.43C335.696 293.915 335.985 293.226 335.985 292.413C335.985 289.095 334.505 285.754 331.639 282.399C328.756 279.023 324.593 276.235 319.184 274.015C313.75 271.717 307.429 270.575 300.231 270.575C293.311 270.575 287.201 271.578 281.91 273.597L281.908 273.598C276.688 275.617 272.622 278.447 269.738 282.105C266.849 285.769 265.404 290.002 265.404 294.784C265.404 301.53 267.98 306.805 273.136 310.548L273.139 310.551C278.252 314.193 285.561 316.545 295.019 317.65L295.02 317.65C299.207 318.13 302.347 318.609 304.45 319.084L304.459 319.086L304.468 319.088C306.66 319.499 308.071 319.999 308.796 320.542L308.814 320.556L308.834 320.568C309.625 321.055 309.936 321.601 309.936 322.204C309.936 322.843 309.435 323.482 307.842 323.968C306.282 324.444 303.894 324.694 300.643 324.694C298.053 324.694 296.074 324.523 294.688 324.194C293.333 323.805 292.102 323.094 290.992 322.051C289.992 321.054 288.692 320.57 287.139 320.57H266.007C265.212 320.57 264.509 320.812 263.93 321.309L263.915 321.322L263.901 321.335C263.379 321.858 263.136 322.544 263.136 323.338C263.136 327.45 264.558 331.236 267.372 334.684L267.376 334.688C270.199 338.076 274.444 340.764 280.064 342.776C285.7 344.794 292.564 345.795 300.643 345.795C307.903 345.795 314.384 344.827 320.081 342.881Z" stroke="white"/>
<path d="M254.847 340.846L254.847 340.846L254.84 340.834L242.387 317.547C249.5 313.236 253.044 306.372 253.044 297.053C253.044 291.883 251.785 287.353 249.251 283.482C246.717 279.61 243.061 276.664 238.31 274.637C233.63 272.612 228.166 271.607 221.928 271.607H181.829C180.937 271.607 180.158 271.938 179.517 272.579C178.877 273.219 178.546 273.998 178.546 274.891V341.482C178.546 342.375 178.877 343.153 179.517 343.794C180.158 344.435 180.937 344.765 181.829 344.765H204.095C204.988 344.765 205.767 344.435 206.407 343.794C207.048 343.153 207.378 342.375 207.378 341.482V321.778H215.212L224.152 341.891L224.153 341.895C224.54 342.746 225.158 343.437 225.989 343.965L225.997 343.971L226.006 343.975C226.908 344.502 227.888 344.765 228.938 344.765H252.338C253.08 344.765 253.725 344.512 254.237 344C254.802 343.436 255.105 342.762 255.105 341.997C255.105 341.585 255.023 341.198 254.847 340.846ZM222.849 293.305L222.858 293.319L222.868 293.333C223.622 294.337 224.005 295.535 224.005 296.95C224.005 298.363 223.623 299.517 222.883 300.445C222.172 301.271 221.157 301.708 219.764 301.708H207.378V291.781H219.764C221.202 291.781 222.199 292.3 222.849 293.305Z" stroke="white"/>
<path d="M111.519 340.939L111.519 340.939L111.523 340.929L113.981 334.045H138.429L140.887 340.929L140.887 340.929L140.891 340.939C141.362 342.17 142.02 343.133 142.886 343.788C143.758 344.446 144.804 344.765 145.997 344.765H165.479C166.222 344.765 166.867 344.512 167.379 344C167.944 343.436 168.247 342.762 168.247 341.997V341.956L168.24 341.915L168.137 341.297L168.131 341.256L168.117 341.217L145.648 275.355C145.343 274.371 144.776 273.508 143.962 272.768C143.091 271.976 141.928 271.607 140.533 271.607H111.876C110.482 271.607 109.319 271.976 108.448 272.768L108.784 273.138L108.448 272.768C107.634 273.508 107.066 274.371 106.762 275.355L84.2925 341.217L84.2793 341.256L84.2725 341.297L84.1695 341.915L84.1627 341.956V341.997C84.1627 342.738 84.4136 343.403 84.9015 343.972L84.9266 344.001L84.9558 344.026C85.525 344.514 86.1895 344.765 86.9305 344.765H106.413C107.606 344.765 108.652 344.446 109.523 343.788C110.39 343.133 111.048 342.17 111.519 340.939ZM132.825 312.944H119.585L126.205 293.55L132.825 312.944Z" stroke="white"/>
<path d="M73.566 331.667L73.5683 331.664C76.4335 327.541 77.8841 323.32 77.8841 319.009C77.8841 318.253 77.5869 317.609 77.017 317.108C76.5159 316.538 75.8721 316.241 75.1163 316.241H52.8505C51.087 316.241 49.7415 317.305 48.7954 319.197C47.8603 321.068 46.7408 322.438 45.4511 323.341C44.202 324.215 42.1962 324.694 39.3467 324.694C36.195 324.694 33.7392 323.957 31.928 322.535C30.2125 321.136 29.3323 319.127 29.3323 316.431V299.938C29.3323 297.243 30.2124 295.234 31.9279 293.835C33.7391 292.413 36.1949 291.676 39.3467 291.676C42.1963 291.676 44.202 292.155 45.4511 293.029C46.7408 293.932 47.8603 295.302 48.7954 297.173C49.7415 299.065 51.087 300.129 52.8505 300.129H75.1163C75.8585 300.129 76.5039 299.876 77.0161 299.364C77.5806 298.8 77.8841 298.126 77.8841 297.361C77.8841 293.05 76.4335 288.863 73.5671 284.807C70.6858 280.662 66.3113 277.279 60.4817 274.641C54.6947 271.923 47.6435 270.575 39.3467 270.575C31.9429 270.575 25.3168 271.717 19.4766 274.011C13.6892 276.243 9.07366 279.736 5.64639 284.491C2.20452 289.198 0.5 295.08 0.5 302.103V314.267C0.5 321.291 2.20497 327.206 5.64538 331.98L5.64746 331.983C9.07461 336.669 13.6888 340.161 19.4732 342.461L19.4799 342.463C25.3191 344.688 31.944 345.795 39.3467 345.795C47.6435 345.795 54.6942 344.481 60.4806 341.832L60.483 341.831C66.3114 339.125 70.685 335.743 73.566 331.667Z" stroke="white"/>
<path d="M401.702 147.083L401.7 147.087L388.635 171.022L375.57 147.087L375.57 147.087L375.568 147.083C374.461 145.089 372.826 144.043 370.699 144.043H351.835C350.942 144.043 350.163 144.374 349.523 145.014C348.882 145.655 348.552 146.433 348.552 147.326V213.917C348.552 214.81 348.882 215.589 349.523 216.23C350.163 216.87 350.942 217.201 351.835 217.201H370.493C371.385 217.201 372.164 216.87 372.805 216.23C373.445 215.589 373.776 214.81 373.776 213.917V184.054L380.348 197.018C380.606 197.608 381.161 198.215 381.927 198.842C382.789 199.547 383.87 199.883 385.13 199.883H392.14C393.4 199.883 394.481 199.547 395.343 198.842C396.109 198.215 396.664 197.608 396.922 197.018L403.495 184.054V213.917C403.495 214.81 403.825 215.589 404.466 216.23C405.106 216.87 405.885 217.201 406.778 217.201H425.436C426.328 217.201 427.107 216.87 427.748 216.23C428.388 215.589 428.719 214.81 428.719 213.917V147.326C428.719 146.433 428.388 145.655 427.748 145.014C427.107 144.374 426.328 144.043 425.436 144.043H406.572C404.444 144.043 402.81 145.089 401.702 147.083Z" stroke="white"/>
<path d="M286.679 213.374L286.679 213.375L286.682 213.364L289.141 206.48H313.588L316.047 213.364L316.047 213.364L316.051 213.374C316.521 214.605 317.179 215.569 318.046 216.223C318.917 216.882 319.963 217.201 321.156 217.201H340.639C341.381 217.201 342.027 216.948 342.539 216.436C343.103 215.871 343.407 215.198 343.407 214.433V214.392L343.4 214.351L343.297 213.732L343.29 213.692L343.277 213.653L320.807 147.79C320.503 146.806 319.936 145.944 319.122 145.204C318.251 144.412 317.087 144.043 315.693 144.043H287.036C285.642 144.043 284.479 144.412 283.607 145.204L283.944 145.574L283.607 145.204C282.794 145.944 282.226 146.806 281.922 147.79L259.452 213.653L259.439 213.692L259.432 213.732L259.329 214.351L259.322 214.392V214.433C259.322 215.174 259.573 215.838 260.061 216.408L260.086 216.437L260.115 216.462C260.685 216.95 261.349 217.201 262.09 217.201H281.573C282.766 217.201 283.812 216.882 284.683 216.223C285.55 215.569 286.208 214.605 286.679 213.374ZM307.984 185.379H294.745L301.365 165.986L307.984 185.379Z" stroke="white"/>
<path d="M249.186 197.071C248.546 196.43 247.767 196.1 246.874 196.1H206.244V190.605H240.174C241.067 190.605 241.845 190.275 242.486 189.634C243.127 188.994 243.457 188.215 243.457 187.322V173.921C243.457 173.029 243.127 172.25 242.486 171.609C241.845 170.969 241.067 170.638 240.174 170.638H206.244V165.144H245.843C246.736 165.144 247.515 164.813 248.156 164.173C248.796 163.532 249.127 162.754 249.127 161.861V147.326C249.127 146.433 248.796 145.655 248.156 145.014C247.515 144.374 246.736 144.043 245.843 144.043H181.726C180.833 144.043 180.055 144.374 179.414 145.014C178.773 145.655 178.443 146.433 178.443 147.326V213.917C178.443 214.81 178.773 215.589 179.414 216.23C180.055 216.87 180.833 217.201 181.726 217.201H246.874C247.767 217.201 248.546 216.87 249.186 216.23C249.827 215.589 250.157 214.81 250.157 213.917V199.383C250.157 198.49 249.827 197.711 249.186 197.071Z" stroke="white"/>
<path d="M167.267 213.282L167.267 213.281L167.26 213.269L154.807 189.982C161.92 185.671 165.464 178.808 165.464 169.489C165.464 164.319 164.205 159.789 161.671 155.917C159.137 152.045 155.481 149.1 150.73 147.073C146.05 145.048 140.586 144.043 134.348 144.043H94.2494C93.3567 144.043 92.5778 144.374 91.9373 145.014C91.2967 145.655 90.9662 146.433 90.9662 147.326V213.917C90.9662 214.81 91.2967 215.589 91.9373 216.23C92.5778 216.87 93.3567 217.201 94.2494 217.201H116.515C117.408 217.201 118.187 216.87 118.827 216.23C119.468 215.589 119.798 214.81 119.798 213.917V194.213H127.632L136.572 214.327L136.573 214.331C136.96 215.182 137.579 215.872 138.409 216.401L138.418 216.406L138.426 216.411C139.328 216.937 140.308 217.201 141.358 217.201H164.758C165.5 217.201 166.145 216.948 166.658 216.436C167.222 215.871 167.526 215.198 167.526 214.433C167.526 214.021 167.443 213.634 167.267 213.282ZM135.269 165.74L135.278 165.755L135.289 165.769C136.042 166.773 136.426 167.971 136.426 169.386C136.426 170.798 136.044 171.953 135.303 172.881C134.592 173.706 133.577 174.143 132.184 174.143H119.798V164.216H132.184C133.622 164.216 134.619 164.736 135.269 165.74Z" stroke="white"/>
<path d="M66.2314 209.79L66.2321 209.789C73.3385 204.723 76.8532 196.715 76.8532 185.879V175.365C76.8532 164.729 73.3004 156.794 66.1308 151.662C59.0791 146.566 49.6884 144.043 38.0066 144.043H5.12324C4.23052 144.043 3.45166 144.374 2.81111 145.014C2.17057 145.655 1.84001 146.433 1.84001 147.326V213.917C1.84001 214.81 2.17056 215.589 2.81111 216.23C3.45166 216.87 4.23052 217.201 5.12324 217.201H38.0066C49.822 217.201 59.2472 214.748 66.2314 209.79ZM45.8258 167.396L45.8334 167.402L45.8412 167.408C47.6255 168.81 48.5364 170.819 48.5364 173.509V187.735C48.5364 190.424 47.6255 192.472 45.8335 193.945C44.0941 195.362 41.6766 196.1 38.522 196.1H29.6415V165.144H38.522C41.6721 165.144 44.0867 165.914 45.8258 167.396Z" stroke="white"/>
<path d="M623.553 83.0431L623.555 83.0445C630.471 88.1441 639.761 90.6671 651.375 90.6671C662.987 90.6671 672.244 88.1445 679.092 83.044C686.056 77.9088 689.5 69.9037 689.5 59.1393V19.7617C689.5 18.869 689.169 18.0902 688.529 17.4496C687.888 16.8091 687.109 16.4785 686.217 16.4785H664.673C663.78 16.4785 663.001 16.8091 662.36 17.4496C661.72 18.0902 661.389 18.869 661.389 19.7617V60.7886C661.389 63.479 660.478 65.4876 658.694 66.8896L658.694 66.8896L658.687 66.8952C656.948 68.3125 654.53 69.0506 651.375 69.0506C648.223 69.0506 645.767 68.3139 643.956 66.8924C642.241 65.4929 641.36 63.4838 641.36 60.7886V19.7617C641.36 18.869 641.03 18.0902 640.389 17.4496C639.749 16.8091 638.97 16.4785 638.077 16.4785H616.533C615.64 16.4785 614.861 16.8091 614.221 17.4496C613.58 18.0902 613.25 18.869 613.25 19.7617V59.1393C613.25 69.9022 616.658 77.9071 623.553 83.0431Z" stroke="white"/>
<path d="M567.89 2.10302L567.882 2.11784L567.875 2.13317C567.557 2.83319 567.151 3.39108 566.661 3.81926L566.991 4.19555L566.661 3.81927C566.255 4.17518 565.451 4.41713 564.104 4.41713C562.777 4.41713 561.93 4.14816 561.447 3.71877C560.883 3.21754 560.578 2.72011 560.469 2.2316L560.465 2.21211L560.459 2.19302C560.294 1.65866 560.004 1.22068 559.567 0.92236C559.136 0.627141 558.608 0.5 558.022 0.5H547.817C547.13 0.5 546.524 0.652224 546.062 1.02189C545.636 1.36269 545.359 1.80356 545.359 2.34007C545.359 5.7651 547.047 8.65296 550.309 10.9929L550.309 10.993L550.315 10.9971C553.593 13.2775 558.21 14.3853 564.104 14.3853C570.065 14.3853 574.718 13.2781 577.997 10.9971L577.997 10.9972L578.003 10.9929C581.264 8.65296 582.953 5.7651 582.953 2.34007C582.953 1.80356 582.676 1.36269 582.25 1.0219V1.0219C581.788 0.652223 581.181 0.5 580.494 0.5H570.289C569.235 0.5 568.435 1.09195 567.89 2.10302ZM549.418 85.8093L549.418 85.8093L549.422 85.7989L551.881 78.915H576.328L578.787 85.7989L578.786 85.7989L578.79 85.8093C579.261 87.04 579.919 88.0034 580.786 88.6583C581.657 89.3167 582.703 89.6355 583.896 89.6355H603.379C604.121 89.6355 604.766 89.3828 605.279 88.8706C605.843 88.3061 606.147 87.6327 606.147 86.8677V86.8263L606.14 86.7855L606.037 86.167L606.03 86.1266L606.017 86.0878L583.547 20.225C583.243 19.2412 582.675 18.3785 581.862 17.6386C580.99 16.8465 579.827 16.4778 578.433 16.4778H549.776C548.381 16.4778 547.218 16.8465 546.347 17.6386C545.533 18.3785 544.966 19.2413 544.661 20.2251L522.192 86.0878L522.179 86.1266L522.172 86.167L522.069 86.7855L522.062 86.8263V86.8677C522.062 87.6087 522.313 88.2732 522.801 88.8424L522.826 88.8716L522.855 88.8967C523.424 89.3846 524.089 89.6355 524.83 89.6355H544.312C545.505 89.6355 546.551 89.3167 547.423 88.6583C548.29 88.0034 548.948 87.04 549.418 85.8093ZM570.724 57.8139H557.484L564.104 38.4205L570.724 57.8139Z" stroke="white"/>
<path d="M464.456 18.7469L464.456 18.7468L464.451 18.7402C463.331 17.246 461.845 16.4785 460.031 16.4785H443.332C442.439 16.4785 441.66 16.8091 441.02 17.4496C440.379 18.0902 440.049 18.869 440.049 19.7617V86.353C440.049 87.2457 440.379 88.0246 441.02 88.6652C441.66 89.3057 442.439 89.6363 443.332 89.6363H462.505C463.398 89.6363 464.177 89.3057 464.817 88.6652C465.458 88.0246 465.788 87.2457 465.788 86.353V59.7625L487.363 87.2746C487.363 87.2755 487.364 87.2763 487.365 87.2772C488.548 88.8285 490.062 89.6363 491.884 89.6363H508.48C509.373 89.6363 510.152 89.3057 510.792 88.6652C511.433 88.0246 511.763 87.2458 511.763 86.353V19.7617C511.763 18.869 511.433 18.0902 510.792 17.4496C510.152 16.8091 509.373 16.4785 508.48 16.4785H489.307C488.414 16.4785 487.635 16.8091 486.995 17.4496C486.354 18.0902 486.023 18.869 486.023 19.7617V48.5252L464.456 18.7469Z" stroke="white"/>
<path d="M421.312 67.5044H403.154V38.6104H421.312C422.205 38.6104 422.984 38.2799 423.624 37.6393C424.265 36.9988 424.596 36.2199 424.596 35.3272V19.7617C424.596 18.869 424.265 18.0902 423.624 17.4496C422.984 16.8091 422.205 16.4785 421.312 16.4785H355.958C355.065 16.4785 354.286 16.8091 353.646 17.4496C353.005 18.0902 352.675 18.869 352.675 19.7617V35.3272C352.675 36.2199 353.005 36.9988 353.646 37.6393C354.286 38.2799 355.065 38.6104 355.958 38.6104H374.322V67.5044H355.958C355.065 67.5044 354.286 67.8349 353.646 68.4755C353.005 69.116 352.675 69.8949 352.675 70.7876V86.353C352.675 87.2457 353.005 88.0246 353.646 88.6652C354.286 89.3057 355.065 89.6363 355.958 89.6363H421.312C422.205 89.6363 422.984 89.3057 423.624 88.6652C424.265 88.0246 424.596 87.2458 424.596 86.353V70.7876C424.596 69.8949 424.265 69.116 423.624 68.4755C422.984 67.8349 422.205 67.5044 421.312 67.5044Z" stroke="white"/>
<path d="M320.081 87.7526L320.086 87.7508C325.784 85.7359 330.262 82.8759 333.492 79.1545C336.801 75.3521 338.459 70.9059 338.459 65.8382C338.459 61.2263 337.41 57.3422 335.28 54.2175C333.146 51.0878 329.719 48.5965 325.055 46.717C320.46 44.8373 314.362 43.4904 306.781 42.6632C301.423 42.045 297.898 41.4657 296.16 40.9323C294.399 40.3213 293.824 39.6069 293.824 38.9337C293.824 38.5607 293.933 38.251 294.147 37.9827C294.367 37.7067 294.72 37.4493 295.244 37.2303C296.302 36.788 297.948 36.5474 300.231 36.5474C302.345 36.5474 303.847 36.7543 304.787 37.1301C305.767 37.5222 306.608 38.0415 307.316 38.6852L307.322 38.6901L307.327 38.6948C308.372 39.5901 309.55 40.0522 310.848 40.0522H333.011C333.851 40.0522 334.573 39.8228 335.103 39.3009C335.696 38.7861 335.985 38.097 335.985 37.2844C335.985 33.9663 334.505 30.6254 331.639 27.2699C328.756 23.8945 324.593 21.1059 319.184 18.8865C313.75 16.5881 307.429 15.4463 300.231 15.4463C293.311 15.4463 287.201 16.4495 281.91 18.4685L281.908 18.4693C276.688 20.4876 272.622 23.3183 269.738 26.9758C266.849 30.64 265.404 34.8731 265.404 39.6553C265.404 46.4006 267.98 51.676 273.136 55.4192L273.139 55.4218C278.252 59.0636 285.561 61.4163 295.019 62.5208L295.02 62.5209C299.207 63.0014 302.347 63.4801 304.45 63.955L304.459 63.9571L304.468 63.9588C306.66 64.3698 308.071 64.8698 308.796 65.4136L308.814 65.4274L308.834 65.4394C309.625 65.9265 309.936 66.4721 309.936 67.0752C309.936 67.714 309.435 68.3528 307.842 68.839C306.282 69.3151 303.894 69.5646 300.643 69.5646C298.053 69.5646 296.074 69.3939 294.688 69.0654C293.333 68.6764 292.102 67.9655 290.992 66.9223C289.992 65.9253 288.692 65.4413 287.139 65.4413H266.007C265.212 65.4413 264.509 65.6834 263.93 66.1802L263.915 66.1927L263.901 66.2062C263.379 66.729 263.136 67.4148 263.136 68.2091C263.136 72.3209 264.558 76.1072 267.372 79.5552L267.376 79.559C270.199 82.9473 274.444 85.6349 280.064 87.647C285.7 89.6649 292.564 90.6657 300.643 90.6657C307.903 90.6657 314.384 89.6978 320.081 87.7526ZM288.92 93.9689L288.917 93.9727L282.953 101.273C282.516 101.721 282.31 102.294 282.31 102.948C282.31 103.575 282.467 104.137 282.869 104.538C283.27 104.94 283.832 105.097 284.459 105.097H296.932H298.169C299.518 105.097 300.614 104.852 301.362 104.27L301.37 104.264L301.377 104.258L311.17 96.0115L311.187 95.9977L311.202 95.9826C311.638 95.5463 311.864 95.0072 311.864 94.3921C311.864 93.6754 311.662 93.0414 311.232 92.5257L311.218 92.5083L311.202 92.4923C310.741 92.0311 310.118 91.8304 309.405 91.8304H293.118H293.099L293.08 91.8319C292.165 91.9023 291.414 92.0454 290.859 92.2832C290.263 92.5389 289.615 93.1345 288.92 93.9689Z" stroke="white"/>
<path d="M246.153 67.5044H227.995V38.6104H246.153C247.045 38.6104 247.824 38.2799 248.465 37.6393C249.105 36.9988 249.436 36.2199 249.436 35.3272V19.7617C249.436 18.869 249.105 18.0902 248.465 17.4496C247.824 16.8091 247.045 16.4785 246.153 16.4785H180.798C179.906 16.4785 179.127 16.8091 178.486 17.4496C177.846 18.0902 177.515 18.869 177.515 19.7617V35.3272C177.515 36.2199 177.846 36.9988 178.486 37.6393C179.127 38.2799 179.906 38.6104 180.798 38.6104H199.162V67.5044H180.798C179.906 67.5044 179.127 67.8349 178.486 68.4755C177.846 69.116 177.515 69.8949 177.515 70.7876V86.353C177.515 87.2458 177.846 88.0246 178.486 88.6652C179.127 89.3057 179.906 89.6363 180.798 89.6363H246.153C247.045 89.6363 247.824 89.3057 248.465 88.6652C249.105 88.0246 249.436 87.2458 249.436 86.353V70.7876C249.436 69.8949 249.105 69.116 248.465 68.4755C247.824 67.8349 247.045 67.5044 246.153 67.5044Z" stroke="white"/>
<path d="M89.257 88.7682L89.2688 88.78L89.2813 88.791C89.9257 89.3548 90.6967 89.6363 91.5691 89.6363H112.804C113.697 89.6363 114.476 89.3057 115.116 88.6652C115.757 88.0246 116.087 87.2458 116.087 86.353V64.8965H135.704V86.353C135.704 87.2458 136.034 88.0246 136.675 88.6652C137.316 89.3057 138.094 89.6363 138.987 89.6363H160.222C161.115 89.6363 161.894 89.3057 162.534 88.6652C163.175 88.0246 163.505 87.2458 163.505 86.353V19.7617C163.505 18.869 163.175 18.0902 162.534 17.4496C161.894 16.8091 161.115 16.4785 160.222 16.4785H138.987C138.094 16.4785 137.316 16.8091 136.675 17.4496C136.034 18.0902 135.704 18.869 135.704 19.7617V40.3937H116.087V19.7617C116.087 18.869 115.757 18.0902 115.116 17.4496C114.476 16.8091 113.697 16.4785 112.804 16.4785H91.5691C90.6764 16.4785 89.8976 16.8091 89.257 17.4496C88.6165 18.0902 88.2859 18.869 88.2859 19.7617V86.353C88.2859 87.3014 88.6074 88.1186 89.257 88.7682Z" stroke="white"/>
<path d="M73.566 76.5382L73.5683 76.5349C76.4335 72.4118 77.8841 68.1908 77.8841 63.8797C77.8841 63.1239 77.5868 62.4801 77.017 61.979C76.5159 61.4092 75.8721 61.1118 75.1163 61.1118H52.8505C51.087 61.1118 49.7415 62.1761 48.7954 64.0684C47.8603 65.9387 46.7408 67.309 45.4511 68.2118C44.202 69.0862 42.1962 69.5646 39.3467 69.5646C36.195 69.5646 33.7392 68.8279 31.928 67.4064C30.2125 66.0069 29.3323 63.9978 29.3323 61.3026V44.8094C29.3323 42.1143 30.2124 40.1052 31.9279 38.7056C33.7391 37.2841 36.1949 36.5474 39.3467 36.5474C42.1962 36.5474 44.202 37.0258 45.4511 37.9001C46.7408 38.803 47.8603 40.1733 48.7954 42.0436C49.7415 43.9359 51.087 45.0001 52.8505 45.0001H75.1163C75.8585 45.0001 76.5039 44.7474 77.0161 44.2352C77.5806 43.6707 77.8841 42.9973 77.8841 42.2323C77.8841 37.9212 76.4335 33.7339 73.5671 29.6784C70.6858 25.533 66.3113 22.1501 60.4817 19.5124C54.6947 16.794 47.6435 15.4463 39.3467 15.4463C31.9429 15.4463 25.3168 16.5879 19.4766 18.8821C13.6892 21.1136 9.07366 24.6069 5.64639 29.3626C2.20452 34.0695 0.5 39.9513 0.5 46.9741V59.1379C0.5 66.1617 2.20497 72.0767 5.64538 76.8511L5.64746 76.854C9.07461 81.5401 13.6888 85.0318 19.4732 87.3317L19.4799 87.3343C25.3191 89.5587 31.944 90.6657 39.3467 90.6657C47.6435 90.6657 54.6942 89.3523 60.4806 86.7032L60.483 86.7021C66.3114 83.996 70.685 80.6138 73.566 76.5382Z" stroke="white"/>
</svg>
