<svg width="85" height="53" viewBox="0 0 85 53" fill="none" xmlns="http://www.w3.org/2000/svg">
<path d="M45.5197 51.7718L45.5392 51.7938L45.5612 51.8133C46.1129 52.3037 46.9116 52.4996 47.8534 52.4996H81.1734C82.1077 52.4996 82.9033 52.3068 83.4169 51.7932C83.9682 51.2419 84.1934 50.4342 84.1934 49.4796V41.2896C84.1934 40.3536 83.9765 39.5578 83.4174 39.0456C82.9052 38.4865 82.1094 38.2696 81.1734 38.2696H61.7234V37.2996C61.7234 36.9485 61.7512 36.6815 61.7973 36.4879C61.8385 36.3147 61.887 36.2312 61.9157 36.1958C62.1158 36.0395 62.5119 35.8588 63.1722 35.6827L63.1832 35.6798L63.1941 35.6763L72.7095 32.6678C72.7102 32.6676 72.711 32.6673 72.7118 32.6671C76.1237 31.6243 78.8581 30.1451 80.8882 28.2117C82.9742 26.225 83.9834 23.3942 83.9834 19.7996V13.2196C83.9834 9.3461 82.8812 6.32519 80.6047 4.24417C78.3822 2.12296 75.2084 1.09961 71.1634 1.09961H50.5134C49.5588 1.09961 48.7511 1.32475 48.1998 1.87606L48.5534 2.22961L48.1998 1.87606C47.6862 2.38972 47.4934 3.18524 47.4934 4.11961V12.3096C47.4934 13.2514 47.6892 14.0501 48.1797 14.6018L48.1992 14.6238L48.2212 14.6433C48.7729 15.1337 49.5716 15.3296 50.5134 15.3296H65.7034C66.3645 15.3296 66.6838 15.4671 66.8198 15.6032L66.8359 15.6192L66.8533 15.6337C66.9496 15.714 67.0934 15.9736 67.0934 16.6496C67.0934 17.3482 66.9599 17.781 66.7734 18.0296L66.7606 18.0466L66.7494 18.0646C66.6206 18.2706 66.2897 18.5076 65.5821 18.6845L65.5679 18.6881L65.5538 18.6925L56.178 21.6312C54.5694 22.1045 53.075 22.6736 51.696 23.3393C50.2827 24.0216 49.0618 24.9492 48.0371 26.1204C47.0018 27.3036 46.2024 28.8158 45.6266 30.639L45.6265 30.639L45.6241 30.6471C45.092 32.437 44.8334 34.7063 44.8334 37.4396V49.4796C44.8334 50.4214 45.0292 51.2201 45.5197 51.7718Z" stroke="white"/>
<path d="M3.82664 15.6096H22.5066V21.0273L17.2056 22.4671L17.2055 22.4669L17.193 22.4707C15.3065 23.0366 13.6464 23.676 12.2161 24.3909C10.8093 25.0705 9.63346 25.9499 8.69823 27.0328C7.75814 28.1213 7.05136 29.47 6.56813 31.0646L6.56794 31.0645L6.56426 31.0781C6.12913 32.6735 5.91664 34.5871 5.91664 36.8096V49.4796C5.91664 50.4214 6.11251 51.2201 6.60294 51.7718L6.62248 51.7938L6.64446 51.8133C7.19619 52.3037 7.99486 52.4996 8.93664 52.4996H20.2766C21.211 52.4996 22.0065 52.3068 22.5202 51.7932C23.0715 51.2419 23.2966 50.4342 23.2966 49.4796V37.6026L28.1191 36.1689L28.1203 36.1685C30.0053 35.603 31.6411 34.9875 33.024 34.3199L33.024 34.3199L33.0303 34.3168C34.4803 33.5918 35.6791 32.6901 36.6151 31.6064C37.5571 30.5156 38.2409 29.1643 38.6772 27.5679C39.1608 25.9686 39.3966 24.0524 39.3966 21.8296V4.11961C39.3966 3.18359 39.1798 2.38783 38.6206 1.8756C38.1084 1.31646 37.3127 1.09961 36.3766 1.09961H3.82664C2.87207 1.09961 2.06439 1.32475 1.51309 1.87606L1.51309 1.87606C0.999428 2.38972 0.806641 3.18524 0.806641 4.11961V12.5896C0.806641 13.5314 1.00251 14.3301 1.49294 14.8818L1.51248 14.9038L1.53446 14.9233C2.08619 15.4137 2.88486 15.6096 3.82664 15.6096Z" stroke="white"/>
</svg>
