<svg width="341" height="22" viewBox="0 0 341 22" fill="none" xmlns="http://www.w3.org/2000/svg">
<path d="M179.525 7.02514C179.525 7.47108 179.338 7.84568 178.966 8.14892C178.611 8.43433 178.173 8.57703 177.652 8.57703H165.825C165.583 8.57703 165.387 8.62163 165.238 8.71082C165.089 8.8 164.977 8.89811 164.902 9.00514C164.828 9.09433 164.79 9.1746 164.79 9.24595C164.79 9.33514 164.828 11.956 164.902 12.0631C164.977 12.1522 165.089 12.2414 165.238 12.3306C165.387 12.402 165.583 12.4466 165.825 12.4644H174.967C176.142 12.4822 177.111 12.7052 177.875 13.1333C178.639 13.5436 179.18 14.0341 179.497 14.605C179.832 15.1579 180 15.7198 180 16.2906C180 16.8436 179.832 18.6279 179.497 19.1987C179.161 19.7517 178.611 20.2422 177.847 20.6703C177.102 21.0806 176.142 21.2857 174.967 21.2857C174.762 21.3036 174.613 21.3125 174.52 21.3125H163.672C163.15 21.3125 162.703 21.1698 162.33 20.8844C161.976 20.5811 161.799 20.2155 161.799 19.7874C161.799 19.3414 161.985 18.9668 162.358 18.6636C162.712 18.3782 163.15 18.2355 163.672 18.2355H175.191C175.471 18.2533 175.694 18.2176 175.862 18.1284C176.049 18.0393 176.188 17.9411 176.282 17.8341C176.375 17.7271 176.421 16.3977 176.421 16.2906C176.421 16.2371 176.375 16.1479 176.282 16.0231C176.188 15.8804 176.049 15.7733 175.862 15.702C175.694 15.6128 175.471 15.5593 175.191 15.5414H166.021C164.94 15.5236 164.045 15.3096 163.337 14.8993C162.628 14.4712 162.125 13.9806 161.827 13.4277C161.529 12.8747 161.379 9.79892 161.379 9.24595C161.379 8.69298 161.529 8.14892 161.827 7.61379C162.144 7.06081 162.647 6.58811 163.337 6.19568C164.045 5.78541 164.94 5.56243 166.021 5.52676C166.207 5.50892 166.347 5.5 166.44 5.5H177.652C178.173 5.5 178.611 5.65162 178.966 5.95487C179.338 6.24027 179.525 6.59703 179.525 7.02514Z" fill="url(#paint0_linear_168_265)"/>
<path d="M143.321 8.93653C143.66 8.06376 144.231 7.2819 145.034 6.59096C145.855 5.88184 146.891 5.51818 148.14 5.5H158.206C158.706 5.5 159.126 5.68183 159.465 6.04548C159.822 6.39095 160 6.81824 160 7.32736C160 7.83647 159.822 8.27286 159.465 8.63651C159.126 8.98198 158.706 9.15472 158.206 9.15472H148.033C147.694 9.15472 147.399 9.30018 147.149 9.5911C146.9 9.86384 146.703 10.1911 146.56 10.573C146.436 10.9548 146.373 11.3185 146.373 11.6639V20.2272C146.266 21.3181 145.677 21.9091 144.606 22C144.106 22 143.669 21.8364 143.294 21.5091C142.937 21.1636 142.759 20.7363 142.759 20.2272V11.6912H142.786C142.786 10.7457 142.964 9.82748 143.321 8.93653Z" fill="url(#paint1_linear_168_265)"/>
<path d="M137.56 20.2272V9.86384C137.56 9.40928 137.315 9.1729 136.825 9.15472H126.924C126.566 9.1729 126.254 9.32745 125.99 9.61838C125.726 9.89112 125.528 10.2184 125.396 10.6002C125.283 10.9639 125.227 11.3366 125.227 11.7185C125.227 12.0821 125.283 16.2452 125.396 16.627C125.528 16.9907 125.726 17.318 125.99 17.6089C126.254 17.8816 126.566 18.018 126.924 18.018H134.166C134.694 18.018 135.137 18.1998 135.495 18.5635C135.873 18.9089 136.061 19.3362 136.061 19.8454C136.061 20.3545 135.873 20.7818 135.495 21.1272C135.137 21.4909 134.694 21.6727 134.166 21.6727H127.037C125.717 21.6545 124.623 21.3 123.756 20.609C122.907 19.8999 122.294 19.109 121.917 18.2362C121.559 17.3452 121.379 12.6367 121.379 11.6912C121.379 10.7821 121.568 9.89112 121.945 9.01835C122.322 8.1274 122.935 7.33645 123.784 6.64551C124.633 5.93638 125.887 5.55455 127.546 5.5H139.427C139.956 5.5 140.408 5.67274 140.785 6.01821C141.163 6.34549 141.361 6.7637 141.379 7.27281V20.2272C141.379 20.7363 141.181 21.1636 140.785 21.5091C140.408 21.8364 139.956 22 139.427 22C138.296 21.9091 137.674 21.3181 137.56 20.2272Z" fill="url(#paint2_linear_168_265)"/>
<path d="M107.356 3.74843C106.709 3.78573 106.164 4.05614 105.722 4.55966C105.296 5.06318 104.989 5.64129 104.802 6.294C104.615 6.92807 104.521 7.58078 104.521 8.25214C104.521 8.9235 104.606 14.3938 104.777 15.0465C104.964 15.6992 105.279 16.2773 105.722 16.7808C106.164 17.2657 106.709 17.5268 107.356 17.5641H117.548C118.621 17.676 119.208 18.3194 119.31 19.4942C119.293 20.0164 119.115 20.4547 118.774 20.809C118.433 21.1447 118.025 21.3125 117.548 21.3125H107.637H106.462C105.27 21.2379 104.291 20.7437 103.525 19.8299C102.759 18.8975 102.205 17.8438 101.865 16.6689C101.541 15.494 101.379 9.48297 101.379 8.25214C101.379 7.33834 101.473 6.43387 101.66 5.53872C101.848 4.64358 102.137 3.79505 102.529 2.99315C102.938 2.1726 103.474 1.47326 104.138 0.895147C104.819 0.317031 105.594 0.0186489 106.462 0H106.948H117.548C118.621 0.111893 119.208 0.755281 119.31 1.93016C119.31 2.45233 119.132 2.89058 118.774 3.24491C118.433 3.58059 118.025 3.74843 117.548 3.74843H107.356Z" fill="url(#paint3_linear_168_265)"/>
<path d="M78.3205 5.5C78.817 5.5 79.2426 5.66935 79.5972 6.00804C79.9519 6.3289 80.138 6.73889 80.1558 7.23802V9.17313H89.1992C89.6957 9.17313 90.1213 9.34248 90.4759 9.68117C90.8128 10.0377 90.9813 10.4655 90.9813 10.9646C90.9813 11.4637 90.8039 11.8916 90.4493 12.2481C90.1124 12.5868 89.6957 12.7561 89.1992 12.7561H80.1558V13.2909C80.138 14.0217 80.1824 14.6991 80.2888 15.323C80.4129 15.9291 80.6966 16.4728 81.1399 16.9541C81.5832 17.4354 82.1418 17.6939 82.8156 17.7295H89.3056C89.8021 17.7473 90.2099 17.9345 90.5291 18.291C90.866 18.6475 91.0345 19.0754 91.0345 19.5745C91.0167 20.0558 90.8394 20.4658 90.5025 20.8045C90.1833 21.1253 89.7843 21.2947 89.3056 21.3125H81.9113C80.67 21.2412 79.6415 20.8223 78.8259 20.0558C78.0279 19.2714 77.4516 18.3178 77.097 17.1947C76.7601 16.0717 76.5827 14.8774 76.565 13.6118V12.7561H73.5062C73.0097 12.7561 72.593 12.5779 72.2561 12.2213C71.9014 11.8827 71.7241 11.4637 71.7241 10.9646C71.7241 10.4655 71.8926 10.0466 72.2295 9.70791C72.5841 9.35139 73.0097 9.17313 73.5062 9.17313H76.565V7.23802C76.5827 6.75672 76.7601 6.35564 77.097 6.03477C77.4339 5.69608 77.8417 5.51783 78.3205 5.5Z" fill="url(#paint4_linear_168_265)"/>
<path d="M61.365 5.5C62.3409 5.5 63.2979 5.60903 64.2362 5.82709C65.1933 6.04515 66.1035 6.37223 66.9667 6.80835C67.8299 7.22629 68.59 7.78961 69.2468 8.4983C69.9224 9.20699 70.2883 10.052 70.3446 11.0332V12.178V20.2283C70.232 21.3186 69.6127 21.9091 68.4868 22C67.9613 22 67.5015 21.8365 67.1075 21.5094C66.7321 21.1641 66.5445 20.7371 66.5445 20.2283V19.029V11.8782C66.5069 11.3149 66.2817 10.8515 65.8689 10.4881C65.4748 10.1065 65.0244 9.80665 64.5177 9.58859C64.0298 9.37053 63.5137 9.20699 62.9695 9.09796C62.4441 8.98893 61.9092 8.93442 61.365 8.93442C60.8208 8.93442 60.2766 8.98893 59.7324 9.09796C59.2069 9.20699 58.6908 9.37053 58.1842 9.58859C57.6962 9.80665 57.2459 10.1065 56.833 10.4881C56.4389 10.8515 56.2231 11.3149 56.1856 11.8782V19.029V20.2283C56.0917 21.3186 55.4818 21.9091 54.3559 22C53.8304 22 53.3706 21.8365 52.9766 21.5094C52.6012 21.1641 52.4136 20.7371 52.4136 20.2283V12.178V11.0332C52.4699 10.052 52.8264 9.20699 53.4832 8.4983C54.1401 7.78961 54.9001 7.22629 55.7633 6.80835C56.6266 6.37223 57.5273 6.04515 58.4657 5.82709C59.4227 5.60903 60.3892 5.5 61.365 5.5Z" fill="url(#paint5_linear_168_265)"/>
<path d="M39.3699 21.3125C37.8691 21.2593 36.7349 20.8956 35.9675 20.2215C35.2 19.5296 34.6457 18.7579 34.3046 17.9064C33.9635 17.0371 33.793 12.4275 33.793 11.5405C33.793 10.618 33.955 9.73101 34.279 8.87949C34.6201 8.01022 35.1744 7.23853 35.9419 6.56441C36.7264 5.87254 37.7156 5.51774 38.9094 5.5H48.6307C49.1082 5.5 49.509 5.66853 49.833 6.00559C50.1741 6.32491 50.3447 6.7152 50.3447 7.17644C50.3447 7.65542 50.1741 8.06344 49.833 8.4005C49.509 8.71983 49.1082 8.87949 48.6307 8.87949H39.0629C38.6877 8.87949 38.3551 9.01254 38.0652 9.27864C37.7923 9.54474 37.5877 9.89067 37.4512 10.3164C37.3318 10.7422 37.2722 11.1591 37.2722 11.5671C37.2722 12.0106 37.3318 16.1767 37.4512 16.6025C37.5877 17.0283 37.7923 17.3742 38.0652 17.6403C38.3551 17.8887 38.6877 18.0217 39.0629 18.0395H48.6307C49.1082 18.0395 49.509 18.1991 49.833 18.5184C50.1741 18.8378 50.3447 19.2192 50.3447 19.6627C50.3447 20.1239 50.1741 20.5142 49.833 20.8335C49.509 21.1528 49.1082 21.3125 48.6307 21.3125H39.3699ZM50.0377 13.6184C50.0377 13.9554 49.8927 14.2481 49.6028 14.4965C49.347 14.7271 49.0229 14.8424 48.6307 14.8424H40.2653C39.873 14.8424 39.5405 14.7271 39.2676 14.4965C38.9947 14.2481 38.8583 13.9554 38.8583 13.6184C38.8583 13.299 38.9947 13.0152 39.2676 12.7668C39.5405 12.5362 39.873 12.4209 40.2653 12.4209H48.6307C49.0229 12.4209 49.3555 12.5451 49.6284 12.7935C49.9013 13.0241 50.0377 13.299 50.0377 13.6184Z" fill="url(#paint6_linear_168_265)"/>
<path d="M3.67007 20.1821C3.56132 21.3008 2.96324 21.9068 1.87581 22C1.36835 22 0.924313 21.8322 0.543714 21.4966C0.181238 21.1423 0 20.7042 0 20.1821L0.108743 1.81785C0.126867 1.2958 0.317166 0.866978 0.679642 0.531374C1.04212 0.177125 1.47709 0 1.98455 0H3.31665H6.66049L25.7977 0.000149823C25.9064 0.000149823 26.0151 0.00947216 26.1239 0.0281168H26.287C27.5557 0.0654062 28.5978 0.363721 29.4134 0.923061C30.2289 1.4824 30.8179 2.12564 31.1804 2.85278C31.5429 3.56128 31.7241 4.2791 31.7241 5.00624C31.7241 5.75203 31.4342 11.5964 31.0717 12.3236C30.7273 13.0321 30.1383 13.666 29.3046 14.2253C28.489 14.7847 27.4469 15.083 26.1783 15.1203L8.97127 15.1201C9.11627 16.0524 9.41531 16.7422 9.8684 17.1897C10.3034 17.6371 10.8561 17.8609 11.5267 17.8609L29.8211 17.861C30.3286 17.8797 30.7455 18.0754 31.0717 18.4483C31.416 18.8212 31.5882 19.2687 31.5882 19.7907C31.5701 20.2942 31.3888 20.723 31.0445 21.0772C30.7183 21.4128 30.3105 21.59 29.8211 21.6086L11.0374 21.6085C9.69623 21.6271 8.48193 21.0864 7.39451 19.9864C6.30708 18.8863 5.64556 17.5812 5.40995 16.071C5.08372 14.393 4.92061 13.4514 4.92061 13.2463C4.92061 12.7243 5.09278 12.2861 5.43714 11.9319C5.79961 11.559 6.23458 11.3726 6.74205 11.3726L26.3414 11.3727C26.6857 11.3541 26.9666 11.2795 27.1841 11.149C27.4197 10.9998 27.5919 10.8413 27.7007 10.6735C27.8094 10.4871 27.9725 5.19269 27.9725 5.00624C27.9725 4.8198 27.9181 4.64267 27.8094 4.47487C27.7007 4.28842 27.5285 4.12994 27.2929 3.99943C27.0754 3.85027 26.7945 3.76637 26.4501 3.74773L6.66049 3.74758H4.48564C4.01442 3.76623 3.77881 4.00861 3.77881 4.47472L3.67007 20.1821Z" fill="url(#paint7_linear_168_265)"/>
<path d="M231 2L233.245 8.90983H240.511L234.633 13.1803L236.878 20.0902L231 15.8197L225.122 20.0902L227.367 13.1803L221.489 8.90983H228.755L231 2Z" fill="#07005A"/>
<path d="M256 2L258.245 8.90983H265.511L259.633 13.1803L261.878 20.0902L256 15.8197L250.122 20.0902L252.367 13.1803L246.489 8.90983H253.755L256 2Z" fill="#07005A"/>
<path d="M281 2L283.245 8.90983H290.511L284.633 13.1803L286.878 20.0902L281 15.8197L275.122 20.0902L277.367 13.1803L271.489 8.90983H278.755L281 2Z" fill="#07005A"/>
<path d="M306 2L308.245 8.90983H315.511L309.633 13.1803L311.878 20.0902L306 15.8197L300.122 20.0902L302.367 13.1803L296.489 8.90983H303.755L306 2Z" fill="#07005A"/>
<path d="M331 2L333.245 8.90983H340.511L334.633 13.1803L336.878 20.0902L331 15.8197L325.122 20.0902L327.367 13.1803L321.489 8.90983H328.755L331 2Z" fill="#07005A"/>
<defs>
<linearGradient id="paint0_linear_168_265" x1="170.69" y1="5.5" x2="170.69" y2="21.3125" gradientUnits="userSpaceOnUse">
<stop stop-color="#07005A"/>
<stop offset="0.48" stop-color="#07005A" stop-opacity="0.59"/>
<stop offset="0.9999" stop-color="#0A0082" stop-opacity="0.7"/>
<stop offset="1" stop-color="#07005A"/>
</linearGradient>
<linearGradient id="paint1_linear_168_265" x1="151.379" y1="5.5" x2="151.379" y2="22" gradientUnits="userSpaceOnUse">
<stop stop-color="#07005A"/>
<stop offset="0.48" stop-color="#07005A" stop-opacity="0.59"/>
<stop offset="0.9999" stop-color="#0A0082" stop-opacity="0.7"/>
<stop offset="1" stop-color="#07005A"/>
</linearGradient>
<linearGradient id="paint2_linear_168_265" x1="131.379" y1="5.5" x2="131.379" y2="22" gradientUnits="userSpaceOnUse">
<stop stop-color="#07005A"/>
<stop offset="0.48" stop-color="#07005A" stop-opacity="0.59"/>
<stop offset="0.9999" stop-color="#0A0082" stop-opacity="0.7"/>
<stop offset="1" stop-color="#07005A"/>
</linearGradient>
<linearGradient id="paint3_linear_168_265" x1="110.345" y1="0" x2="110.345" y2="21.3125" gradientUnits="userSpaceOnUse">
<stop stop-color="#07005A"/>
<stop offset="0.48" stop-color="#07005A" stop-opacity="0.59"/>
<stop offset="0.9999" stop-color="#0A0082" stop-opacity="0.7"/>
<stop offset="1" stop-color="#07005A"/>
</linearGradient>
<linearGradient id="paint4_linear_168_265" x1="81.3793" y1="5.5" x2="81.3793" y2="21.3125" gradientUnits="userSpaceOnUse">
<stop stop-color="#07005A"/>
<stop offset="0.48" stop-color="#07005A" stop-opacity="0.59"/>
<stop offset="0.9999" stop-color="#0A0082" stop-opacity="0.7"/>
<stop offset="1" stop-color="#07005A"/>
</linearGradient>
<linearGradient id="paint5_linear_168_265" x1="61.3791" y1="5.5" x2="61.3791" y2="22" gradientUnits="userSpaceOnUse">
<stop stop-color="#07005A"/>
<stop offset="0.48" stop-color="#07005A" stop-opacity="0.59"/>
<stop offset="0.9999" stop-color="#0A0082" stop-opacity="0.7"/>
<stop offset="1" stop-color="#07005A"/>
</linearGradient>
<linearGradient id="paint6_linear_168_265" x1="42.0688" y1="5.5" x2="42.0688" y2="21.3125" gradientUnits="userSpaceOnUse">
<stop stop-color="#07005A"/>
<stop offset="0.48" stop-color="#07005A" stop-opacity="0.59"/>
<stop offset="0.9999" stop-color="#0A0082" stop-opacity="0.7"/>
<stop offset="1" stop-color="#07005A"/>
</linearGradient>
<linearGradient id="paint7_linear_168_265" x1="15.8621" y1="0" x2="15.8621" y2="22" gradientUnits="userSpaceOnUse">
<stop stop-color="#07005A"/>
<stop offset="0.48" stop-color="#07005A" stop-opacity="0.59"/>
<stop offset="0.9999" stop-color="#0A0082" stop-opacity="0.7"/>
<stop offset="1" stop-color="#07005A"/>
</linearGradient>
</defs>
</svg>
