<svg width="280" height="60" viewBox="0 0 280 60" fill="none" xmlns="http://www.w3.org/2000/svg">
<path d="M49.0802 21.4066C54.3339 21.3657 99.5723 21.8734 121.444 22.512C119.748 20.5845 96.1046 19.8787 84.4949 19.7668C71.886 19.8648 61.4951 15.498 57.8757 13.3024C88.7916 4.32888 117.865 3.35899 128.518 5.17246C141.75 7.42476 153.684 19.1113 171.429 22.1236C188.721 25.0589 202.24 20.4691 216.302 20.5619C234.798 20.7821 245.011 24.9462 248.921 26.3732C267.44 33.133 277.461 35.4002 279.909 34.9263C260.178 26.2857 262.73 26.2659 243.629 21.4109C228.348 17.5269 207.524 17.7999 199.022 18.4219C176.825 20.4947 176.812 19.3526 159.337 11.1494C145.357 4.58675 133.002 2.03444 128.491 1.53382C109.359 -0.589197 84.9315 4.70254 75.241 6.95106C66.7036 8.93202 41.8644 13.4268 30.2677 15.0331C34.3615 16.4569 41.9889 16.6604 45.2909 16.5842C48.414 16.6812 47.6968 17.1214 46.9478 17.3294C35.4324 19.117 14.4301 18.2897 5.36839 17.6525C5.2593 19.1089 4.54298 20.9946 4.19846 21.7553C-0.185103 29.6736 -0.0709816 32.8567 0.534025 33.4585C2.41414 27.9856 6.26901 24.2662 7.96142 23.0907C8.55452 22.1157 35.621 21.5617 49.0802 21.4066Z" fill="url(#paint0_linear_60_1897)"/>
<path d="M268.311 37.2184C268.311 37.867 268.041 38.4119 267.5 38.853C266.986 39.2681 266.351 39.4757 265.595 39.4757H248.446C248.095 39.4757 247.811 39.5405 247.595 39.6703C247.378 39.8 247.216 39.9427 247.108 40.0984C247 40.2281 246.946 40.3449 246.946 40.4487C246.946 40.5784 247 44.3906 247.108 44.5463C247.216 44.676 247.378 44.8057 247.595 44.9355C247.811 45.0392 248.095 45.1041 248.446 45.1301H261.703C263.405 45.156 264.811 45.4803 265.919 46.103C267.027 46.6998 267.811 47.4133 268.27 48.2436C268.757 49.0479 269 49.8652 269 50.6955C269 51.4998 268.757 54.0951 268.27 54.9254C267.784 55.7297 266.986 56.4432 265.878 57.0659C264.797 57.6627 263.405 57.9611 261.703 57.9611C261.405 57.987 261.189 58 261.054 58H245.324C244.568 58 243.919 57.7924 243.378 57.3773C242.865 56.9362 242.608 56.4043 242.608 55.7816C242.608 55.133 242.878 54.5881 243.419 54.147C243.932 53.7319 244.568 53.5243 245.324 53.5243H262.027C262.432 53.5503 262.757 53.4984 263 53.3686C263.27 53.2389 263.473 53.0962 263.608 52.9405C263.743 52.7849 263.811 50.8511 263.811 50.6955C263.811 50.6176 263.743 50.4879 263.608 50.3063C263.473 50.0987 263.27 49.943 263 49.8392C262.757 49.7095 262.432 49.6317 262.027 49.6057H248.73C247.162 49.5798 245.865 49.2684 244.838 48.6717C243.811 48.049 243.081 47.3355 242.649 46.5311C242.216 45.7268 242 41.253 242 40.4487C242 39.6443 242.216 38.853 242.649 38.0746C243.108 37.2703 243.838 36.5827 244.838 36.0119C245.865 35.4151 247.162 35.0908 248.73 35.0389C249 35.013 249.203 35 249.338 35H265.595C266.351 35 266.986 35.2205 267.5 35.6616C268.041 36.0768 268.311 36.5957 268.311 37.2184Z" fill="url(#paint1_linear_60_1897)"/>
<path d="M215.815 39.9986C216.307 38.7291 217.135 37.5919 218.3 36.5869C219.49 35.5554 220.991 35.0264 222.803 35H237.399C238.124 35 238.732 35.2645 239.224 35.7934C239.741 36.2959 240 36.9174 240 37.658C240 38.3985 239.741 39.0332 239.224 39.5622C238.732 40.0647 238.124 40.316 237.399 40.316H222.648C222.156 40.316 221.729 40.5275 221.366 40.9507C221.004 41.3474 220.719 41.8235 220.512 42.3789C220.331 42.9343 220.241 43.4632 220.241 43.9657V56.4214C220.085 58.0082 219.231 58.8678 217.679 59C216.954 59 216.32 58.762 215.776 58.2859C215.259 57.7834 215 57.1619 215 56.4214V44.0054H215.039C215.039 42.6301 215.298 41.2945 215.815 39.9986Z" fill="url(#paint2_linear_60_1897)"/>
<path d="M207.463 56.4214V41.3474C207.463 40.6862 207.107 40.3424 206.396 40.316H192.04C191.52 40.3424 191.069 40.5672 190.686 40.9904C190.303 41.3871 190.016 41.8631 189.825 42.4185C189.661 42.9475 189.579 43.4897 189.579 44.0451C189.579 44.574 189.661 50.6294 189.825 51.1848C190.016 51.7137 190.303 52.1898 190.686 52.6129C191.069 53.0096 191.52 53.208 192.04 53.208H202.54C203.306 53.208 203.949 53.4725 204.468 54.0014C205.015 54.5039 205.289 55.1254 205.289 55.866C205.289 56.6065 205.015 57.228 204.468 57.7305C203.949 58.2595 203.306 58.5239 202.54 58.5239H192.204C190.289 58.4975 188.703 57.9818 187.446 56.9768C186.215 55.9453 185.326 54.7948 184.779 53.5254C184.26 52.2294 184 45.3807 184 44.0054C184 42.683 184.273 41.3871 184.82 40.1176C185.367 38.8217 186.256 37.6712 187.487 36.6662C188.717 35.6347 190.536 35.0793 192.942 35H210.17C210.935 35 211.592 35.2513 212.139 35.7538C212.686 36.2298 212.973 36.8381 213 37.5786V56.4214C213 57.1619 212.713 57.7834 212.139 58.2859C211.592 58.762 210.935 59 210.17 59C208.529 58.8678 207.627 58.0082 207.463 56.4214Z" fill="url(#paint3_linear_60_1897)"/>
<path d="M163.667 32.4523C162.728 32.5065 161.938 32.8998 161.296 33.6322C160.679 34.3646 160.235 35.2055 159.963 36.1549C159.691 37.0772 159.556 38.0266 159.556 39.0031C159.556 39.9796 159.679 47.9364 159.926 48.8858C160.198 49.8352 160.654 50.6761 161.296 51.4085C161.938 52.1137 162.728 52.4935 163.667 52.5477H178.444C180 52.7105 180.852 53.6463 181 55.3552C180.975 56.1148 180.716 56.7522 180.222 57.2676C179.728 57.7559 179.136 58 178.444 58H164.074H162.37C160.642 57.8915 159.222 57.1727 158.111 55.8435C157 54.4872 156.198 52.9546 155.704 51.2457C155.235 49.5368 155 40.7934 155 39.0031C155 37.674 155.136 36.3584 155.407 35.0563C155.679 33.7543 156.099 32.5201 156.667 31.3537C157.259 30.1601 158.037 29.1429 159 28.302C159.988 27.4611 161.111 27.0271 162.37 27H163.074H178.444C180 27.1628 180.852 28.0986 181 29.8075C181 30.567 180.741 31.2045 180.222 31.7199C179.728 32.2081 179.136 32.4523 178.444 32.4523H163.667Z" fill="url(#paint4_linear_60_1897)"/>
<path d="M121.565 35C122.285 35 122.902 35.2463 123.416 35.739C123.93 36.2057 124.2 36.802 124.226 37.528V40.3427H137.339C138.059 40.3427 138.676 40.5891 139.19 41.0817C139.679 41.6003 139.923 42.2225 139.923 42.9485C139.923 43.6745 139.666 44.2968 139.152 44.8154C138.663 45.308 138.059 45.5544 137.339 45.5544H124.226V46.3322C124.2 47.3953 124.264 48.3806 124.419 49.288C124.599 50.1696 125.01 50.9604 125.653 51.6605C126.296 52.3606 127.106 52.7365 128.083 52.7884H137.493C138.213 52.8143 138.804 53.0866 139.267 53.6051C139.756 54.1237 140 54.746 140 55.472C139.974 56.172 139.717 56.7684 139.229 57.261C138.766 57.7278 138.187 57.9741 137.493 58H126.771C124.972 57.8963 123.48 57.287 122.298 56.172C121.14 55.0312 120.305 53.644 119.791 52.0105C119.302 50.377 119.045 48.6398 119.019 46.7989V45.5544H114.584C113.864 45.5544 113.26 45.2951 112.771 44.7765C112.257 44.2839 112 43.6745 112 42.9485C112 42.2225 112.244 41.6132 112.733 41.1206C113.247 40.602 113.864 40.3427 114.584 40.3427H119.019V37.528C119.045 36.828 119.302 36.2446 119.791 35.7779C120.279 35.2852 120.871 35.0259 121.565 35Z" fill="url(#paint5_linear_60_1897)"/>
<path d="M96.9796 35C98.3946 35 99.7823 35.1586 101.143 35.4758C102.531 35.7929 103.85 36.2687 105.102 36.9031C106.354 37.511 107.456 38.3303 108.408 39.3612C109.388 40.392 109.918 41.621 110 43.0483V44.7135V56.4229C109.837 58.0088 108.939 58.8678 107.306 59C106.544 59 105.878 58.7621 105.306 58.2864C104.762 57.7842 104.49 57.163 104.49 56.4229V54.6785V44.2774C104.435 43.458 104.109 42.784 103.51 42.2554C102.939 41.7003 102.286 41.2642 101.551 40.947C100.844 40.6299 100.095 40.392 99.3061 40.2334C98.5442 40.0748 97.7687 39.9955 96.9796 39.9955C96.1905 39.9955 95.4014 40.0748 94.6122 40.2334C93.8503 40.392 93.102 40.6299 92.3673 40.947C91.6599 41.2642 91.0068 41.7003 90.4082 42.2554C89.8367 42.784 89.5238 43.458 89.4694 44.2774V54.6785V56.4229C89.3333 58.0088 88.449 58.8678 86.8163 59C86.0544 59 85.3878 58.7621 84.8163 58.2864C84.2721 57.7842 84 57.163 84 56.4229V44.7135V43.0483C84.0816 41.621 84.5986 40.392 85.551 39.3612C86.5034 38.3303 87.6054 37.511 88.8571 36.9031C90.1088 36.2687 91.415 35.7929 92.7755 35.4758C94.1633 35.1586 95.5646 35 96.9796 35Z" fill="url(#paint6_linear_60_1897)"/>
<path d="M65.0866 58C62.9104 57.9226 61.2658 57.3936 60.153 56.4131C59.0402 55.4067 58.2365 54.2843 57.7419 53.0457C57.2473 51.7813 57 45.0764 57 43.7862C57 42.4444 57.2349 41.1542 57.7048 39.9156C58.1994 38.6512 59.0031 37.5288 60.1159 36.5482C61.2535 35.5419 62.6878 35.0258 64.4189 35H78.5147C79.2071 35 79.7883 35.2451 80.2581 35.7354C80.7527 36.1999 81 36.7676 81 37.4385C81 38.1352 80.7527 38.7286 80.2581 39.2189C79.7883 39.6834 79.2071 39.9156 78.5147 39.9156H64.6414C64.0974 39.9156 63.6151 40.1091 63.1947 40.4962C62.7991 40.8833 62.5023 41.3864 62.3045 42.0057C62.1314 42.625 62.0448 43.2314 62.0448 43.8249C62.0448 44.47 62.1314 50.5298 62.3045 51.1491C62.5023 51.7684 62.7991 52.2716 63.1947 52.6586C63.6151 53.0199 64.0974 53.2134 64.6414 53.2392H78.5147C79.2071 53.2392 79.7883 53.4714 80.2581 53.9359C80.7527 54.4004 81 54.9552 81 55.6003C81 56.2711 80.7527 56.8388 80.2581 57.3033C79.7883 57.7678 79.2071 58 78.5147 58H65.0866ZM80.5549 46.8085C80.5549 47.2988 80.3447 47.7246 79.9243 48.0858C79.5533 48.4213 79.0835 48.589 78.5147 48.589H66.3849C65.8161 48.589 65.3338 48.4213 64.9382 48.0858C64.5425 47.7246 64.3447 47.2988 64.3447 46.8085C64.3447 46.3441 64.5425 45.9312 64.9382 45.57C65.3338 45.2345 65.8161 45.0668 66.3849 45.0668H78.5147C79.0835 45.0668 79.5657 45.2474 79.9614 45.6087C80.357 45.9441 80.5549 46.3441 80.5549 46.8085Z" fill="url(#paint7_linear_60_1897)"/>
<path d="M13.3216 56.3558C13.1639 57.983 12.2967 58.8644 10.7199 59C9.9841 59 9.34025 58.7559 8.78838 58.2678C8.26279 57.7525 8 57.1152 8 56.3558L8.15768 29.6442C8.18396 28.8848 8.45989 28.2611 8.98548 27.7729C9.51107 27.2576 10.1418 27 10.8776 27H12.8091H17.6577L45.4066 27.0002C45.5643 27.0002 45.722 27.0138 45.8796 27.0409H46.1162C47.9557 27.0951 49.4668 27.529 50.6494 28.3426C51.8319 29.1562 52.686 30.0918 53.2116 31.1495C53.7372 32.18 54 33.2241 54 34.2818C54 35.3666 53.5795 43.8676 53.0539 44.9252C52.5546 45.9558 51.7005 46.8778 50.4917 47.6914C49.3091 48.505 47.798 48.9389 45.9585 48.9931L21.0083 48.9929C21.2186 50.3489 21.6522 51.3523 22.3092 52.0031C22.9399 52.654 23.7414 52.9795 24.7138 52.9795L51.2407 52.9797C51.9765 53.0068 52.5809 53.2915 53.0539 53.8339C53.5532 54.3763 53.8029 55.0272 53.8029 55.7865C53.7766 56.5188 53.5138 57.1425 53.0145 57.6578C52.5415 58.1459 51.9502 58.4036 51.2407 58.4307L24.0042 58.4305C22.0595 58.4576 20.2988 57.6711 18.722 56.0711C17.1453 54.471 16.1861 52.5727 15.8444 50.376C15.3714 47.9352 15.1349 46.5657 15.1349 46.2674C15.1349 45.5081 15.3845 44.8708 15.8838 44.3555C16.4094 43.8131 17.0401 43.5419 17.776 43.5419L46.195 43.5421C46.6943 43.515 47.1016 43.4065 47.417 43.2167C47.7586 42.9997 48.0083 42.7692 48.166 42.5251C48.3236 42.2539 48.5601 34.553 48.5601 34.2818C48.5601 34.0106 48.4813 33.753 48.3236 33.5089C48.166 33.2377 47.9163 33.0072 47.5747 32.8174C47.2593 32.6004 46.852 32.4784 46.3527 32.4512L17.6577 32.451H14.5042C13.8209 32.4781 13.4793 32.8307 13.4793 33.5087L13.3216 56.3558Z" fill="url(#paint8_linear_60_1897)"/>
<defs>
<linearGradient id="paint0_linear_60_1897" x1="139.822" y1="0.875355" x2="140.095" y2="36.0673" gradientUnits="userSpaceOnUse">
<stop stop-color="#07005A"/>
<stop offset="0.48" stop-color="#07005A" stop-opacity="0.59"/>
<stop offset="0.9999" stop-color="#0A0082" stop-opacity="0.7"/>
<stop offset="1" stop-color="#07005A"/>
</linearGradient>
<linearGradient id="paint1_linear_60_1897" x1="255.5" y1="35" x2="255.5" y2="58" gradientUnits="userSpaceOnUse">
<stop stop-color="#07005A"/>
<stop offset="0.48" stop-color="#07005A" stop-opacity="0.59"/>
<stop offset="0.9999" stop-color="#0A0082" stop-opacity="0.7"/>
<stop offset="1" stop-color="#07005A"/>
</linearGradient>
<linearGradient id="paint2_linear_60_1897" x1="227.5" y1="35" x2="227.5" y2="59" gradientUnits="userSpaceOnUse">
<stop stop-color="#07005A"/>
<stop offset="0.48" stop-color="#07005A" stop-opacity="0.59"/>
<stop offset="0.9999" stop-color="#0A0082" stop-opacity="0.7"/>
<stop offset="1" stop-color="#07005A"/>
</linearGradient>
<linearGradient id="paint3_linear_60_1897" x1="198.5" y1="35" x2="198.5" y2="59" gradientUnits="userSpaceOnUse">
<stop stop-color="#07005A"/>
<stop offset="0.48" stop-color="#07005A" stop-opacity="0.59"/>
<stop offset="0.9999" stop-color="#0A0082" stop-opacity="0.7"/>
<stop offset="1" stop-color="#07005A"/>
</linearGradient>
<linearGradient id="paint4_linear_60_1897" x1="168" y1="27" x2="168" y2="58" gradientUnits="userSpaceOnUse">
<stop stop-color="#07005A"/>
<stop offset="0.48" stop-color="#07005A" stop-opacity="0.59"/>
<stop offset="0.9999" stop-color="#0A0082" stop-opacity="0.7"/>
<stop offset="1" stop-color="#07005A"/>
</linearGradient>
<linearGradient id="paint5_linear_60_1897" x1="126" y1="35" x2="126" y2="58" gradientUnits="userSpaceOnUse">
<stop stop-color="#07005A"/>
<stop offset="0.48" stop-color="#07005A" stop-opacity="0.59"/>
<stop offset="0.9999" stop-color="#0A0082" stop-opacity="0.7"/>
<stop offset="1" stop-color="#07005A"/>
</linearGradient>
<linearGradient id="paint6_linear_60_1897" x1="97" y1="35" x2="97" y2="59" gradientUnits="userSpaceOnUse">
<stop stop-color="#07005A"/>
<stop offset="0.48" stop-color="#07005A" stop-opacity="0.59"/>
<stop offset="0.9999" stop-color="#0A0082" stop-opacity="0.7"/>
<stop offset="1" stop-color="#07005A"/>
</linearGradient>
<linearGradient id="paint7_linear_60_1897" x1="69" y1="35" x2="69" y2="58" gradientUnits="userSpaceOnUse">
<stop stop-color="#07005A"/>
<stop offset="0.48" stop-color="#07005A" stop-opacity="0.59"/>
<stop offset="0.9999" stop-color="#0A0082" stop-opacity="0.7"/>
<stop offset="1" stop-color="#07005A"/>
</linearGradient>
<linearGradient id="paint8_linear_60_1897" x1="31" y1="27" x2="31" y2="59" gradientUnits="userSpaceOnUse">
<stop stop-color="#07005A"/>
<stop offset="0.48" stop-color="#07005A" stop-opacity="0.59"/>
<stop offset="0.9999" stop-color="#0A0082" stop-opacity="0.7"/>
<stop offset="1" stop-color="#07005A"/>
</linearGradient>
</defs>
</svg>
