<svg width="1537" height="405" viewBox="0 0 1537 405" fill="none" xmlns="http://www.w3.org/2000/svg">
<path d="M755.25 53.9127C553.489 -54.1148 190.05 38.5087 5.55183e-05 70.0418L0 400C48.6127 386.893 104.166 240.248 687.779 351.943C1184.88 447.08 1450.58 341.685 1537 341.685L1529.2 5.07611C1529.2 5.07611 957.011 161.94 755.25 53.9127Z" fill="url(#paint0_linear_134_1317)"/>
<path d="M215 81.0783C317.802 31.8839 590.271 -40.9592 857.733 61.2241C932.176 89.6648 1129.98 107.419 1323 1" stroke="url(#paint1_linear_134_1317)"/>
<path d="M206.929 327.923C303.7 374.717 549.858 377.518 811.957 346.808C886.563 338.067 1068.23 302.867 1249.93 404.095" stroke="url(#paint2_linear_134_1317)"/>
<defs>
<linearGradient id="paint0_linear_134_1317" x1="1.40056e-05" y1="212.748" x2="1536.98" y2="193.758" gradientUnits="userSpaceOnUse">
<stop stop-color="#282828" stop-opacity="0"/>
<stop offset="0.485" stop-color="#232323" stop-opacity="0.6"/>
<stop offset="0.934" stop-color="#313131" stop-opacity="0"/>
<stop offset="1" stop-color="#313131" stop-opacity="0"/>
</linearGradient>
<linearGradient id="paint1_linear_134_1317" x1="215" y1="83" x2="1285" y2="21.4999" gradientUnits="userSpaceOnUse">
<stop stop-color="white" stop-opacity="0"/>
<stop offset="0.545" stop-color="white"/>
<stop offset="1" stop-color="white" stop-opacity="0"/>
</linearGradient>
<linearGradient id="paint2_linear_134_1317" x1="206.929" y1="326.095" x2="1214.23" y2="383.389" gradientUnits="userSpaceOnUse">
<stop stop-color="white" stop-opacity="0"/>
<stop offset="0.545" stop-color="white"/>
<stop offset="1" stop-color="white" stop-opacity="0"/>
</linearGradient>
</defs>
</svg>
